<?xml version="1.0" standalone="no"?>
<!DOCTYPE svg PUBLIC "-//W3C//DTD SVG 1.1//EN" "http://www.w3.org/Graphics/SVG/1.1/DTD/svg11.dtd" >
<svg xmlns="http://www.w3.org/2000/svg" xmlns:xlink="http://www.w3.org/1999/xlink" version="1.1">
<metadata></metadata>
<defs>
<font id="rajdhanilight" horiz-adv-x="1019" >
<font-face units-per-em="2048" ascent="1638" descent="-410" />
<missing-glyph horiz-adv-x="573" />
<glyph horiz-adv-x="0" />
<glyph horiz-adv-x="682" />
<glyph horiz-adv-x="0" />
<glyph horiz-adv-x="0" />
<glyph unicode="&#xd;" horiz-adv-x="681" />
<glyph unicode=" "  horiz-adv-x="573" />
<glyph unicode="&#x09;" horiz-adv-x="573" />
<glyph unicode="&#xa0;" horiz-adv-x="573" />
<glyph unicode="!" horiz-adv-x="485" d="M205 1126v172q0 18 16 19h43q16 0 17 -19v-172q0 -182 -7.5 -415.5t-12.5 -264t-15 -30.5h-8q-10 0 -15 22q-18 135 -18 688zM276 262v-244q0 -18 -16 -18h-35q-16 0 -16 18v244q0 18 16 19h35q16 -1 16 -19z" />
<glyph unicode="&#x22;" horiz-adv-x="663" d="M182 903h-6q-18 0 -18 21l-15 372q0 20 19 21h35q18 0 18 -21l-14 -372q-1 -21 -19 -21zM487 903h-6q-18 0 -18 21l-14 372q0 20 18 21h35q18 0 18 -21l-14 -372q-1 -21 -19 -21z" />
<glyph unicode="#" horiz-adv-x="1390" d="M1249 963q18 0 19 -17v-24q0 -16 -19 -17h-209l-141 -493h205q18 0 18 -17v-24q0 -16 -18 -17h-221l-97 -331q-6 -23 -24 -23h-23q-18 0 -10 31l94 323h-430l-96 -331q-6 -23 -25 -23h-22q-20 0 -10 31l94 323h-193q-18 0 -18 17v24q0 16 18 17h209l142 493h-205 q-18 0 -19 17v24q0 16 19 17h221l96 331q6 23 27 23h16q25 0 15 -31l-95 -323h430l97 331q6 23 26 23h17q23 0 14 -31l-94 -323h192zM840 412l141 493h-430l-141 -493h430z" />
<glyph unicode="$" d="M553 -201h-29q-16 0 -16 19v182h-80q-125 0 -199.5 76t-74.5 203v69q0 18 16 19h29q16 0 16 -19v-67q0 -104 55.5 -164t157.5 -60h164q102 0 157.5 59.5t55.5 164.5v145q0 117 -53.5 165t-163.5 48h-148q-137 0 -211.5 58.5t-74.5 203.5v141q0 127 74.5 203t199.5 76h80 v182q0 18 16 19h29q16 0 16 -19v-182h23q125 0 199.5 -76t74.5 -203v-61q0 -18 -16 -18h-29q-16 0 -16 18v59q0 104 -55.5 164t-157.5 60h-164q-102 0 -157.5 -59.5t-55.5 -164.5v-139q0 -115 51 -161t162 -46h166q272 0 272 -264v-151q0 -127 -74.5 -203t-199.5 -76h-23 v-182q0 -19 -16 -19z" />
<glyph unicode="%" horiz-adv-x="1456" d="M1116 543h-33q-100 0 -139 -43t-39 -150v-98q0 -106 39 -150.5t139 -44.5h33q100 0 138 44t38 151v98q0 106 -38 149.5t-138 43.5zM1083 600h33q123 0 180.5 -59.5t57.5 -188.5v-102q0 -129 -57.5 -189.5t-180.5 -60.5h-33q-123 0 -181 60.5t-58 189.5v102 q0 127 57 187.5t182 60.5zM375 1270h-33q-100 0 -139 -43t-39 -150v-98q0 -106 39 -150.5t139 -44.5h33q100 0 138 44t38 151v98q0 106 -38 149.5t-138 43.5zM342 1327h33q123 0 180 -59.5t57 -188.5v-102q0 -129 -57 -189.5t-180 -60.5h-33q-123 0 -181.5 60.5t-58.5 189.5 v102q0 127 57.5 187.5t182.5 60.5zM449 0h-21q-20 0 -10 25l563 1269q10 23 27 23h20q20 0 8 -29l-561 -1265q-10 -23 -26 -23z" />
<glyph unicode="&#x26;" horiz-adv-x="1212" d="M612 0h-174q-125 0 -199.5 72.5t-74.5 199.5v189q0 102 53 177t166 77q-98 117 -98 241v88q0 127 74.5 200t199.5 73h45q125 0 200 -73t75 -200v-100q0 -18 -17 -18h-28q-16 0 -17 18v98q0 104 -55 161t-158 57h-45q-102 0 -157.5 -56.5t-55.5 -161.5v-84 q0 -68 18.5 -113.5t69.5 -101.5l137 -157h500q18 0 19 -17v-24q0 -16 -19 -17h-450l446 -516q4 -8 -4 -12h-39q-14 0 -27 12l-129 148q-27 -76 -94.5 -118t-161.5 -42zM438 57h174q178 0 207 158l-401 461q-94 -6 -143.5 -62.5t-49.5 -154.5v-185q0 -104 55.5 -160.5 t157.5 -56.5z" />
<glyph unicode="'" horiz-adv-x="378" d="M193 903h-7q-18 0 -18 21l-14 372q0 20 18 21h35q18 0 18 -21l-14 -372q-6 -21 -18 -21z" />
<glyph unicode="(" horiz-adv-x="567" d="M424 1300v-24q0 -16 -18 -16h-9q-102 0 -157.5 -59.5t-55.5 -164.5v-964q0 -104 55.5 -164t157.5 -60h9q18 0 18 -16v-25q0 -16 -18 -16h-9q-125 0 -199.5 76t-74.5 203v968q0 127 74.5 203t199.5 76h9q18 -1 18 -17z" />
<glyph unicode=")" horiz-adv-x="567" d="M123 -193v25q0 16 18 16h9q102 0 157 59.5t55 164.5v964q0 104 -55 164t-157 60h-9q-18 0 -18 16v24q0 16 18 17h9q125 0 199.5 -76t74.5 -203v-968q0 -127 -75 -203t-199 -76h-9q-18 0 -18 16z" />
<glyph unicode="*" horiz-adv-x="835" d="M387 1264v34q0 18 16 19h31q16 0 17 -19v-34q0 -152 -33 -217q86 66 233 106q16 6 21 -10l8 -29q8 -16 -12 -22l-35 -11q-152 -47 -215 -34q84 -61 151 -158l23 -31q10 -10 -4 -22l-25 -17q-14 -10 -24 4q-113 158 -121 224q-37 -102 -125 -224q-8 -12 -23 -4l-24 19 q-14 6 -2 24q57 80 103 126t71 59q-111 0 -250 49q-18 6 -12 20l10 29q4 16 22 10q176 -55 230 -108q-31 86 -31 217z" />
<glyph unicode="+" horiz-adv-x="1048" d="M555 686h332q18 0 18 -16v-25q0 -16 -18 -16h-332v-334q0 -18 -16 -19h-29q-16 0 -16 19v334h-332q-18 0 -19 16v25q0 16 19 16h332v334q0 18 16 18h29q16 0 16 -18v-334z" />
<glyph unicode="," horiz-adv-x="382" d="M229 262v-162q0 -31 -53 -295q-4 -12 -13 -12t-9 12v457q0 18 16 19h43q16 -1 16 -19z" />
<glyph unicode="-" horiz-adv-x="638" d="M539 627h-439q-18 0 -18 16v25q0 16 18 16h439q18 0 18 -16v-25q0 -16 -18 -16z" />
<glyph unicode="." horiz-adv-x="382" d="M229 262v-244q0 -18 -16 -18h-43q-16 0 -16 18v244q0 18 16 19h43q16 -1 16 -19z" />
<glyph unicode="/" horiz-adv-x="804" d="M188 0h-26q-27 0 -17 25l447 1269q8 23 26 23h29q23 0 12 -29l-444 -1265q-9 -23 -27 -23z" />
<glyph unicode="0" horiz-adv-x="1040" d="M418 57h205q102 0 157.5 59.5t55.5 164.5v755q0 104 -55.5 164t-157.5 60h-205q-102 0 -157.5 -59.5t-55.5 -164.5v-755q0 -104 55.5 -164t157.5 -60zM623 0h-205q-125 0 -200 76t-75 203v759q0 127 75 203t200 76h205q125 0 199.5 -76t74.5 -203v-759q0 -127 -74.5 -203 t-199.5 -76z" />
<glyph unicode="1" horiz-adv-x="638" d="M82 1102v12q0 27 22 39l277 154q20 10 33 10h24q16 0 17 -19v-1280q0 -18 -17 -18h-28q-16 0 -17 18v1231l-278 -157q-33 -23 -33 10z" />
<glyph unicode="2" horiz-adv-x="970" d="M131 16v177q0 154 129 245l410 305q109 80 108 215v84q0 104 -55 161t-158 57h-168q-102 0 -157.5 -56.5t-55.5 -161.5v-98q0 -18 -16 -18h-29q-16 0 -16 18v100q0 127 74.5 200t199.5 73h168q125 0 200 -73t75 -200v-88q0 -160 -131 -256l-414 -309q-102 -78 -102 -190 v-144h636q18 0 19 -16v-25q0 -16 -19 -16h-679q-19 0 -19 16z" />
<glyph unicode="3" horiz-adv-x="1009" d="M465 692h127q102 0 157.5 56.5t55.5 160.5v133q0 104 -55.5 161t-157.5 57h-174q-102 0 -157.5 -56.5t-55.5 -161.5v-77q0 -18 -17 -19h-28q-16 0 -17 19v79q0 127 75 200t200 73h174q125 0 199.5 -73t74.5 -200v-137q0 -193 -172 -243q172 -45 172 -244v-148 q0 -127 -74.5 -199.5t-199.5 -72.5h-174q-125 0 -200 72.5t-75 199.5v103q0 18 17 18h28q16 0 17 -18v-101q0 -104 55 -160.5t158 -56.5h174q102 0 157.5 56.5t55.5 160.5v144q0 104 -55.5 160.5t-157.5 56.5h-127q-18 0 -19 16v25q1 16 19 16z" />
<glyph unicode="4" horiz-adv-x="1054" d="M737 334v938l-565 -938h565zM782 0h-28q-16 0 -17 18v258h-616q-18 0 -19 17v24q0 14 13 33l569 944q12 23 39 23h59q16 0 17 -19v-964h155q18 0 19 -17v-24q0 -16 -19 -17h-155v-258q-1 -18 -17 -18z" />
<glyph unicode="5" horiz-adv-x="974" d="M578 760h-197q-55 0 -90 -17.5t-47.5 -37t-23.5 -37t-23 -17.5h-37q-16 0 -17 19v628q0 18 17 19h653q18 0 18 -17v-24q0 -16 -18 -16h-608v-543q39 100 176 100h197q125 0 199.5 -72.5t74.5 -199.5v-266q0 -127 -75 -203t-199 -76h-160q-125 0 -200 76t-75 203v81 q0 18 17 19h28q16 0 17 -19v-79q0 -104 55 -164t158 -60h160q102 0 157.5 59.5t55.5 164.5v262q0 104 -55.5 160.5t-157.5 56.5z" />
<glyph unicode="6" horiz-adv-x="1003" d="M397 57h189q102 0 157.5 59.5t55.5 164.5v211q0 104 -55.5 163.5t-157.5 59.5h-402v-434q0 -104 55.5 -164t157.5 -60zM586 0h-189q-125 0 -199.5 76t-74.5 203v759q0 127 74.5 203t199.5 76h381q18 0 19 -17v-24q0 -16 -19 -16h-381q-102 0 -157.5 -59.5t-55.5 -164.5 v-264h402q125 0 199.5 -75.5t74.5 -202.5v-215q0 -127 -74.5 -203t-199.5 -76z" />
<glyph unicode="7" horiz-adv-x="751" d="M223 0h-20q-25 0 -13 29l453 1231h-594q-18 0 -18 16v24q0 16 18 17h643q18 0 19 -17v-20q0 -14 -6 -29l-453 -1233q-6 -18 -29 -18z" />
<glyph unicode="8" horiz-adv-x="1050" d="M418 57h215q102 0 157.5 56.5t55.5 160.5v144q0 104 -55.5 160.5t-157.5 56.5h-215q-102 0 -157.5 -56.5t-55.5 -160.5v-144q0 -104 55.5 -160.5t157.5 -56.5zM418 692h215q102 0 157.5 56.5t55.5 160.5v133q0 104 -55.5 161t-157.5 57h-215q-102 0 -157.5 -56.5 t-55.5 -161.5v-133q0 -104 55.5 -160.5t157.5 -56.5zM633 0h-215q-125 0 -200 72.5t-75 199.5v148q0 184 152 244q-152 59 -152 243v137q0 127 75 200t200 73h215q125 0 199.5 -73t74.5 -200v-137q0 -184 -151 -243q152 -59 151 -244v-148q0 -127 -74.5 -199.5t-199.5 -72.5 z" />
<glyph unicode="9" horiz-adv-x="1003" d="M397 602h402v434q0 104 -55.5 164t-157.5 60h-189q-102 0 -157.5 -59.5t-55.5 -164.5v-211q0 -104 55.5 -163.5t157.5 -59.5zM586 0h-381q-18 0 -19 16v25q0 16 19 16h381q102 0 157.5 59.5t55.5 164.5v264h-402q-125 0 -199.5 75.5t-74.5 202.5v215q0 127 74.5 203 t199.5 76h189q125 0 199.5 -76t74.5 -203v-759q0 -127 -74.5 -203t-199.5 -76z" />
<glyph unicode=":" horiz-adv-x="382" d="M229 1026v-244q0 -18 -16 -18h-43q-16 0 -16 18v244q0 18 16 18h43q16 0 16 -18zM229 262v-244q0 -18 -16 -18h-43q-16 0 -16 18v244q0 18 16 19h43q16 -1 16 -19z" />
<glyph unicode=";" horiz-adv-x="382" d="M229 262v-162q0 -31 -53 -295q-4 -12 -13 -12t-9 12v457q0 18 16 19h43q16 -1 16 -19zM229 1026v-244q0 -18 -16 -18h-43q-16 0 -16 18v244q0 18 16 18h43q16 0 16 -18z" />
<glyph unicode="&#x3c;" horiz-adv-x="1024" d="M893 973v-29q0 -16 -14 -20l-691 -267l691 -266q14 -4 14 -20v-29q0 -20 -23 -12l-720 284q-18 8 -19 23v41q0 14 19 22l720 285q23 8 23 -12z" />
<glyph unicode="=" horiz-adv-x="1069" d="M172 864h725q18 0 18 -16v-25q0 -16 -18 -16h-725q-18 0 -18 16v25q0 16 18 16zM172 508h725q18 0 18 -16v-25q0 -16 -18 -16h-725q-18 0 -18 16v25q0 16 18 16z" />
<glyph unicode="&#x3e;" horiz-adv-x="1069" d="M154 944v29q0 20 22 12l721 -285q18 -8 18 -22v-41q0 -14 -18 -23l-721 -284q-23 -8 -22 12v29q0 16 14 20l690 266l-690 267q-14 4 -14 20z" />
<glyph unicode="?" horiz-adv-x="972" d="M545 262v-244q0 -18 -17 -18h-43q-16 0 -16 18v244q0 18 16 19h43q17 -1 17 -19zM539 514v-80q0 -18 -17 -18h-28q-16 0 -17 18v72q0 88 23.5 135t99.5 113l64 57q84 72 84 162v67q0 104 -55.5 160.5t-157.5 56.5h-97q-102 0 -157.5 -56t-55.5 -161v-96q0 -18 -16 -18 h-29q-16 0 -16 18v98q0 127 74.5 200t199.5 73h97q125 0 199.5 -73t74.5 -200v-71q0 -113 -98 -195l-82 -69q-61 -51 -75.5 -87t-14.5 -106z" />
<glyph unicode="@" horiz-adv-x="1546" d="M1067 -119h-373q-201 0 -355.5 139.5t-154.5 382.5v310q0 244 155 383t355 139h393q125 0 200 -76t75 -203v-507q0 -127 -75 -203t-200 -76h-47q-25 0 -41 17.5t-16 41.5v52h-8q-57 -106 -221 -107q-125 0 -200 76t-75 203v211q0 127 75 202.5t200 75.5h274q16 0 16 -18 v-680q0 -16 19 -17h24q102 0 157.5 59.5t55.5 164.5v503q0 104 -55 164t-158 60h-397q-178 0 -311 -129t-133 -334v-314q0 -205 133 -333.5t311 -128.5h377q18 0 18 -17v-24q0 -17 -18 -17zM983 444v424q0 16 -18 17h-211q-102 0 -157.5 -59.5t-55.5 -163.5v-207 q0 -104 55 -164t158 -60h2q102 0 164.5 55.5t62.5 157.5z" />
<glyph unicode="A" horiz-adv-x="1077" d="M104 0h-28q-18 0 -13 18l431 1280q6 18 20 19h49q14 0 21 -19l430 -1280q6 -18 -13 -18h-30q-14 0 -21 18l-125 357h-573l-125 -357q-9 -18 -23 -18zM535 1239l-261 -803h529l-260 803h-8z" />
<glyph unicode="B" horiz-adv-x="1114" d="M264 57h422q102 0 157.5 56.5t55.5 160.5v146q0 217 -233 217h-402q-18 0 -18 -16v-547q0 -17 18 -17zM264 694h402q104 0 162.5 56.5t58.5 160.5v131q0 104 -55.5 161t-157.5 57h-410q-18 0 -18 -17v-532q0 -17 18 -17zM184 18v1280q0 18 17 19h473q125 0 199.5 -73 t74.5 -200v-135q0 -190 -180 -243q74 -4 133.5 -72t59.5 -172v-150q0 -127 -75 -199.5t-200 -72.5h-485q-17 0 -17 18z" />
<glyph unicode="C" horiz-adv-x="1112" d="M705 0h-267q-125 0 -199.5 76t-74.5 203v759q0 127 74.5 203t199.5 76h267q125 0 199.5 -76t74.5 -203v-102q0 -18 -16 -18h-29q-16 0 -16 18v100q0 104 -55.5 164t-157.5 60h-267q-102 0 -157.5 -59.5t-55.5 -164.5v-755q0 -104 55.5 -164t157.5 -60h267 q102 0 157.5 59.5t55.5 164.5v100q0 18 16 18h29q16 0 16 -18v-102q0 -127 -74.5 -203t-199.5 -76z" />
<glyph unicode="D" horiz-adv-x="1142" d="M264 57h441q102 0 157.5 59.5t55.5 164.5v755q0 104 -55.5 164t-157.5 60h-441q-18 0 -18 -17v-1169q0 -17 18 -17zM184 18v1280q0 18 17 19h504q125 0 199.5 -76t74.5 -203v-759q0 -127 -75 -203t-199 -76h-504q-17 0 -17 18z" />
<glyph unicode="E" horiz-adv-x="985" d="M823 0h-622q-16 0 -17 18v1280q0 18 17 19h622q18 0 19 -17v-24q0 -16 -19 -16h-559q-18 0 -18 -17v-526q0 -16 18 -17h506q18 0 18 -16v-25q0 -16 -18 -16h-506q-18 0 -18 -16v-553q0 -16 18 -17h559q18 0 19 -16v-25q-1 -16 -19 -16z" />
<glyph unicode="F" horiz-adv-x="946" d="M229 0h-28q-16 0 -17 18v1280q0 18 17 19h624q18 0 19 -17v-24q0 -16 -19 -16h-561q-18 0 -18 -17v-545q0 -16 18 -16h506q18 0 18 -16v-25q0 -16 -18 -16h-506q-18 0 -18 -17v-590q-1 -18 -17 -18z" />
<glyph unicode="G" horiz-adv-x="1101" d="M664 0h-226q-125 0 -199.5 76t-74.5 203v759q0 127 74.5 203t199.5 76h226q125 0 199.5 -76t74.5 -203v-102q0 -18 -16 -18h-29q-16 0 -16 18v100q0 104 -55.5 164t-157.5 60h-226q-102 0 -157.5 -59.5t-55.5 -164.5v-755q0 -104 55.5 -164t157.5 -60h226 q102 0 157.5 59.5t55.5 164.5v309q0 16 -19 16h-264q-18 0 -19 17v24q0 16 19 17h307q37 0 37 -39v-346q0 -127 -74.5 -203t-199.5 -76z" />
<glyph unicode="H" horiz-adv-x="1163" d="M229 0h-28q-16 0 -17 18v1280q0 18 17 19h28q16 0 17 -19v-581q0 -16 18 -17h635q18 0 19 17v581q0 18 16 19h29q16 0 16 -19v-1280q0 -18 -16 -18h-29q-16 0 -16 18v609q0 16 -19 16h-635q-18 0 -18 -16v-609q-1 -18 -17 -18z" />
<glyph unicode="I" horiz-adv-x="450" d="M256 1298v-1280q0 -18 -16 -18h-29q-16 0 -16 18v1280q0 18 16 19h29q16 -1 16 -19z" />
<glyph unicode="J" horiz-adv-x="1009" d="M791 1317h28q16 0 17 -17v-1021q0 -127 -75 -203t-200 -76h-205q-125 0 -199.5 76t-74.5 203v163q0 18 16 19h29q16 0 16 -19v-161q0 -104 55.5 -164t157.5 -60h205q102 0 157.5 59.5t55.5 164.5v1017q1 19 17 19z" />
<glyph unicode="K" horiz-adv-x="1071" d="M229 0h-28q-16 0 -17 18v1280q0 18 17 19h28q16 0 17 -19v-802h8q12 27 31 51l575 751q14 18 33 19h39q20 0 4 -19l-418 -555l488 -725q12 -18 -9 -18h-32q-18 0 -31 18l-455 676l-233 -280v-396q-1 -18 -17 -18z" />
<glyph unicode="L" horiz-adv-x="925" d="M846 0h-645q-16 0 -17 18v1280q0 18 17 19h28q16 0 17 -19v-1220q0 -16 18 -17h582q18 0 18 -16v-29q0 -16 -18 -16z" />
<glyph unicode="M" horiz-adv-x="1409" d="M1151 1317h57q16 0 17 -19v-1280q0 -18 -17 -18h-28q-16 0 -17 18v1180h-8l-405 -895q-8 -16 -25 -16h-39q-16 0 -24 16l-408 897h-8v-1182q0 -18 -17 -18h-28q-16 0 -17 18v1280q0 18 17 19h57q10 0 14 -8l428 -947h9l428 947q4 8 14 8z" />
<glyph unicode="N" horiz-adv-x="1183" d="M229 0h-28q-16 0 -17 18v1280q0 18 17 19h28q10 0 15 -8l686 -1162h8v1151q0 18 16 19h29q16 0 16 -19v-1280q0 -18 -16 -18h-20q-14 0 -25 16l-684 1158h-8v-1156q-1 -18 -17 -18z" />
<glyph unicode="O" horiz-adv-x="1132" d="M438 57h256q102 0 157.5 59.5t55.5 164.5v755q0 104 -55 164t-158 60h-256q-102 0 -157.5 -59.5t-55.5 -164.5v-755q0 -104 55.5 -164t157.5 -60zM694 0h-256q-125 0 -199.5 76t-74.5 203v759q0 127 74.5 203t199.5 76h256q125 0 200 -76t75 -203v-759q0 -127 -75 -203 t-200 -76z" />
<glyph unicode="P" horiz-adv-x="1071" d="M229 0h-28q-16 0 -17 18v1280q0 18 17 19h463q125 0 199.5 -76t74.5 -203v-252q0 -127 -75 -202.5t-199 -75.5h-400q-18 0 -18 -16v-474q-1 -18 -17 -18zM264 565h400q102 0 157.5 59.5t55.5 163.5v248q0 104 -55.5 164t-157.5 60h-400q-18 0 -18 -17v-661q0 -17 18 -17z " />
<glyph unicode="Q" horiz-adv-x="1132" d="M438 57h256q102 0 157.5 59.5t55.5 164.5v755q0 104 -55 164t-158 60h-256q-102 0 -157.5 -59.5t-55.5 -164.5v-755q0 -104 55.5 -164t157.5 -60zM844 -272h-33q-18 0 -31 18l-157 254h-185q-125 0 -199.5 76t-74.5 203v759q0 127 74.5 203t199.5 76h256q125 0 200 -76 t75 -203v-759q0 -127 -75 -203t-200 -76l158 -254q12 -18 -8 -18z" />
<glyph unicode="R" horiz-adv-x="1085" d="M229 0h-28q-16 0 -17 18v1280q0 18 17 19h461q125 0 199.5 -76t74.5 -203v-204q0 -115 -61.5 -188t-165.5 -87v-8l252 -533q10 -18 -9 -18h-37q-16 0 -26 18l-250 537h-375q-18 0 -18 -16v-521q-1 -18 -17 -18zM264 612h398q102 0 157 59.5t55 164.5v200q0 104 -55 164 t-157 60h-398q-18 0 -18 -17v-614q0 -17 18 -17z" />
<glyph unicode="S" horiz-adv-x="1163" d="M184 279v81q0 18 17 19h28q16 0 17 -19v-79q0 -104 55 -164t158 -60h246q102 0 157.5 59.5t55.5 164.5v102q0 96 -76 152.5t-183.5 82l-215 51t-183.5 85t-76 161.5v123q0 127 75 203t200 76h246q125 0 199.5 -76t74.5 -203v-61q0 -18 -16 -19h-29q-16 0 -16 19v59 q0 104 -55.5 164t-157.5 60h-246q-102 0 -157.5 -59.5t-55.5 -164.5v-118q0 -152 258 -209q109 -23 216 -50.5t183 -94t76 -177.5v-108q0 -127 -75 -203t-199 -76h-246q-125 0 -200 76t-75 203z" />
<glyph unicode="T" horiz-adv-x="847" d="M438 0h-28q-16 0 -17 18v1225q0 16 -18 17h-316q-18 0 -18 16v24q0 16 18 17h729q18 0 19 -17v-24q0 -16 -19 -16h-315q-18 0 -18 -17v-1225q-1 -18 -17 -18z" />
<glyph unicode="U" horiz-adv-x="1126" d="M907 1317h29q16 0 16 -17v-1021q0 -127 -74.5 -203t-199.5 -76h-229q-125 0 -200 76t-75 203v1019q0 18 16 19h29q16 0 17 -19v-1017q0 -104 55 -164t158 -60h229q102 0 157.5 59.5t55.5 164.5v1017q0 19 16 19z" />
<glyph unicode="V" horiz-adv-x="1011" d="M530 0h-49q-14 0 -20 18l-398 1280q-6 18 13 19h30q14 0 21 -19l375 -1208h8l375 1208q6 18 20 19h31q18 0 12 -19l-397 -1280q-7 -18 -21 -18z" />
<glyph unicode="W" horiz-adv-x="1617" d="M449 0h-56q-16 0 -22 18l-297 1280q-4 18 16 19h29q14 0 20 -19l277 -1220h8l342 1220q6 18 22 19h39q16 0 23 -19l344 -1220h8l277 1220q4 18 22 19h31q18 0 12 -19l-297 -1280q-4 -18 -20 -18h-56q-16 0 -22 18l-336 1209h-8l-336 -1209q-6 -18 -20 -18z" />
<glyph unicode="X" horiz-adv-x="1011" d="M119 0h-33q-18 0 -8 18l389 682l-367 598q-10 18 11 19h28q18 0 29 -19l336 -550h8l334 550q10 18 26 19h33q18 0 8 -19l-364 -596l387 -684q10 -18 -8 -18h-33q-14 0 -23 14l-362 635h-8l-361 -635q-8 -14 -22 -14z" />
<glyph unicode="Y" horiz-adv-x="995" d="M512 0h-29q-16 0 -16 18v484l-404 796q-10 18 11 19h37q14 0 22 -19l361 -716h8l360 716q8 18 23 19h37q20 0 10 -19l-404 -796v-484q0 -18 -16 -18z" />
<glyph unicode="Z" horiz-adv-x="964" d="M82 16v35q0 12 4 19l705 1181v9h-670q-18 0 -19 16v24q0 16 19 17h723q18 0 18 -17v-38q0 -10 -4 -17l-704 -1179v-9h710q18 0 19 -16v-25q0 -16 -19 -16h-764q-18 0 -18 16z" />
<glyph unicode="[" horiz-adv-x="567" d="M406 -209h-267q-16 0 -16 19v1488q0 18 16 19h267q18 0 18 -17v-24q0 -16 -18 -16h-203q-18 0 -19 -17v-1378q0 -16 19 -17h203q18 0 18 -16v-25q0 -16 -18 -16z" />
<glyph unicode="\" horiz-adv-x="804" d="M158 1317h28q18 0 27 -23l446 -1269q8 -25 -16 -25h-27q-18 0 -26 23l-445 1265q-10 29 13 29z" />
<glyph unicode="]" horiz-adv-x="567" d="M123 -193v25q0 16 18 16h203q18 0 18 17v1378q0 16 -18 17h-203q-18 0 -18 16v24q0 16 18 17h267q16 0 16 -19v-1488q0 -18 -16 -19h-267q-18 0 -18 16z" />
<glyph unicode="^" horiz-adv-x="927" d="M162 748h-21q-29 0 -14 24l274 522q12 23 39 23h47q27 0 39 -23l275 -522q14 -25 -15 -24h-20q-16 0 -29 18l-274 516l-273 -516q-12 -18 -28 -18z" />
<glyph unicode="_" horiz-adv-x="761" d="M743 -197h-725q-18 0 -18 17v24q0 16 18 17h725q18 0 19 -17v-24q-1 -17 -19 -17z" />
<glyph unicode="`" horiz-adv-x="534" d="M381 1176h-16q-16 0 -29 16l-189 229q-6 8 -3 13.5t12 5.5h61q20 0 31 -19l139 -227q10 -18 -6 -18z" />
<glyph unicode="a" d="M569 0h-151q-125 0 -200 76t-75 203v487q0 127 75 202.5t200 75.5h422q16 0 16 -18v-1008q0 -18 -16 -18h-29q-16 0 -16 18v88h-9q-57 -106 -217 -106zM795 270v701q0 16 -19 16h-358q-102 0 -157.5 -59.5t-55.5 -163.5v-483q0 -104 55 -164t158 -60h147q102 0 166 55.5 t64 157.5z" />
<glyph unicode="b" d="M244 57h358q102 0 157.5 59.5t55.5 164.5v503q0 104 -55 164t-158 60h-147q-102 0 -166 -55.5t-64 -157.5v-721q1 -17 19 -17zM164 18v1403q0 18 16 19h29q16 0 16 -19v-463h8q57 106 218 107h151q125 0 200 -76t75 -203v-507q0 -127 -75 -203t-200 -76h-422 q-16 0 -16 18z" />
<glyph unicode="c" horiz-adv-x="798" d="M727 41v-25q0 -16 -18 -16h-291q-125 0 -200 76t-75 203v487q0 127 75 202.5t200 75.5h291q18 0 18 -16v-24q0 -16 -18 -17h-291q-102 0 -157.5 -59.5t-55.5 -163.5v-483q0 -104 55 -164t158 -60h291q18 0 18 -16z" />
<glyph unicode="d" d="M569 0h-151q-125 0 -200 76t-75 203v487q0 127 75 202.5t200 75.5h151q160 0 217 -106h9v483q0 18 16 19h29q16 0 16 -19v-1403q0 -18 -16 -18h-29q-16 0 -16 18v88h-9q-57 -106 -217 -106zM795 270v504q0 102 -63.5 157.5t-166.5 55.5h-147q-102 0 -157.5 -59.5 t-55.5 -163.5v-483q0 -104 55 -164t158 -60h147q102 0 166 55.5t64 157.5z" />
<glyph unicode="e" horiz-adv-x="1005" d="M838 0h-420q-125 0 -200 76t-75 203v487q0 127 75 202.5t200 75.5h180q125 0 199.5 -75.5t74.5 -202.5v-260q0 -20 -18 -21h-631q-18 0 -18 -16v-188q0 -104 55 -164t158 -60h420q18 0 18 -16v-25q0 -16 -18 -16zM223 543h570q18 0 18 16v205q0 104 -55.5 163.5 t-157.5 59.5h-180q-102 0 -157.5 -59.5t-55.5 -163.5v-205q0 -16 18 -16z" />
<glyph unicode="f" horiz-adv-x="593" d="M336 1044h192q18 0 19 -16v-24q0 -16 -19 -17h-192q-18 0 -19 -16v-953q0 -18 -16 -18h-29q-16 0 -16 18v953q0 16 -18 16h-140q-18 0 -18 17v24q0 16 18 16h140q18 0 18 17v104q0 274 242 275h30q18 0 19 -17v-24q0 -16 -19 -17h-30q-98 0 -139.5 -54t-41.5 -165v-102 q1 -17 19 -17z" />
<glyph unicode="g" horiz-adv-x="1030" d="M580 61h-152q-125 0 -199.5 76t-74.5 203v426q0 127 74.5 202.5t199.5 75.5h422q16 0 16 -18v-1020q0 -127 -74.5 -202.5t-199.5 -75.5h-367q-18 0 -18 16v25q0 16 18 16h367q102 0 157.5 59.5t55.5 163.5v160h-8q-57 -107 -217 -107zM805 332v639q0 16 -19 16h-358 q-102 0 -157.5 -59.5t-55.5 -163.5v-422q0 -104 55.5 -163.5t157.5 -59.5h147q102 0 166 55.5t64 157.5z" />
<glyph unicode="h" horiz-adv-x="1030" d="M209 0h-29q-16 0 -16 18v1403q0 18 16 19h29q16 0 16 -19v-483h8q57 106 218 106h151q125 0 200 -75.5t75 -202.5v-748q0 -18 -17 -18h-29q-16 0 -16 18v746q0 104 -55 163.5t-158 59.5h-147q-102 0 -166 -55t-64 -158v-756q0 -18 -16 -18z" />
<glyph unicode="i" horiz-adv-x="409" d="M174 1214v203q0 18 16 19h29q16 0 17 -19v-203q0 -18 -17 -18h-29q-16 0 -16 18zM174 18v1008q0 18 16 18h29q16 0 17 -18v-1008q0 -18 -17 -18h-29q-16 0 -16 18z" />
<glyph unicode="j" horiz-adv-x="409" d="M174 1214v203q0 18 16 19h29q16 0 17 -19v-203q0 -18 -17 -18h-29q-16 0 -16 18zM-39 -272h-41q-18 0 -18 16v25q0 16 18 16h41q102 0 157.5 59.5t55.5 163.5v1018q0 18 16 18h29q16 0 17 -18v-1020q0 -127 -75 -202.5t-200 -75.5z" />
<glyph unicode="k" horiz-adv-x="860" d="M750 1044h28q23 0 8 -18l-325 -481v-8l368 -519q14 -18 -6 -18h-35q-23 0 -36 18l-359 510q-8 12 0 25l324 477q10 14 33 14zM209 0h-29q-16 0 -16 18v1403q0 18 16 19h29q16 0 16 -19v-1403q0 -18 -16 -18z" />
<glyph unicode="l" horiz-adv-x="409" d="M219 0h-29q-16 0 -16 18v1403q0 18 16 19h29q16 0 17 -19v-1403q-1 -18 -17 -18z" />
<glyph unicode="m" horiz-adv-x="1558" d="M209 0h-29q-16 0 -16 18v1008q0 18 16 18h29q16 0 16 -18v-88h8q57 106 218 106h90q180 0 247 -145q29 72 106 108.5t155 36.5h81q125 0 200 -75.5t75 -202.5v-748q0 -18 -16 -18h-29q-16 0 -17 18v746q0 104 -55 163.5t-158 59.5h-81q-104 0 -169 -60.5t-65 -162.5v-746 q0 -18 -16 -18h-29q-16 0 -16 18v746q0 104 -55.5 163.5t-157.5 59.5h-86q-102 0 -166 -55t-64 -158v-756q0 -18 -16 -18z" />
<glyph unicode="n" horiz-adv-x="1030" d="M209 0h-29q-16 0 -16 18v1008q0 18 16 18h29q16 0 16 -18v-88h8q57 106 218 106h151q125 0 200 -75.5t75 -202.5v-748q0 -18 -17 -18h-29q-16 0 -16 18v746q0 104 -55 163.5t-158 59.5h-147q-102 0 -166 -55t-64 -158v-756q0 -18 -16 -18z" />
<glyph unicode="o" horiz-adv-x="1009" d="M592 0h-174q-125 0 -200 76t-75 203v487q0 127 75 202.5t200 75.5h174q125 0 199.5 -75.5t74.5 -202.5v-487q0 -127 -74.5 -203t-199.5 -76zM418 57h174q102 0 157.5 59.5t55.5 164.5v483q0 104 -55.5 163.5t-157.5 59.5h-174q-102 0 -157.5 -59.5t-55.5 -163.5v-483 q0 -104 55.5 -164t157.5 -60z" />
<glyph unicode="p" d="M209 -313h-29q-16 0 -16 18v1321q0 18 16 18h29q16 0 16 -18v-88h8q57 106 218 106h151q125 0 200 -75.5t75 -202.5v-487q0 -127 -75 -203t-200 -76h-151q-160 0 -218 106h-8v-401q0 -18 -16 -18zM455 57h147q102 0 157.5 59.5t55.5 164.5v483q0 104 -55 163.5t-158 59.5 h-147q-102 0 -166 -55t-64 -158v-504q0 -102 64 -157.5t166 -55.5z" />
<glyph unicode="q" d="M795 281v690q0 16 -19 16h-358q-102 0 -157.5 -59.5t-55.5 -163.5v-483q0 -104 55 -164t158 -60h143q104 0 169 61t65 163zM561 0h-143q-125 0 -200 76t-75 203v487q0 127 75 202.5t200 75.5h422q16 0 16 -18v-1321q0 -18 -16 -18h-29q-16 0 -16 18v406h-9 q-29 -51 -72.5 -78t-73.5 -30t-79 -3z" />
<glyph unicode="r" horiz-adv-x="620" d="M209 0h-29q-16 0 -16 18v1008q0 18 16 18h29q16 0 16 -18v-92h8q23 41 79.5 75.5t146.5 34.5h82q18 0 18 -16v-24q0 -16 -18 -17h-84q-104 0 -168 -65.5t-64 -178.5v-725q0 -18 -16 -18z" />
<glyph unicode="s" horiz-adv-x="878" d="M487 0h-348q-18 0 -18 16v25q0 16 18 16h348q207 0 207 164v62q0 76 -26.5 123t-96.5 71l-270 94q-106 37 -148 91.5t-42 152.5q0 229 249 229h330q18 0 19 -16v-24q0 -16 -19 -17h-330q-94 0 -140 -43t-46 -98v-55q0 -66 34 -102t105 -60l269 -97q109 -31 141.5 -100.5 t32.5 -194t-66 -181t-203 -56.5z" />
<glyph unicode="t" horiz-adv-x="708" d="M215 987h-135q-18 0 -19 17v24q0 16 19 16h135q18 0 18 17v160q0 18 17 18h29q16 0 16 -18v-160q0 -16 18 -17h265q18 0 18 -16v-24q0 -16 -18 -17h-265q-18 0 -18 -16v-697q0 -102 60.5 -159.5t164.5 -57.5h78q18 0 18 -16v-25q0 -16 -18 -16h-78q-127 0 -207 73.5 t-80 198.5v699q0 16 -18 16z" />
<glyph unicode="u" horiz-adv-x="1030" d="M580 0h-152q-125 0 -199.5 76t-74.5 203v747q0 18 16 18h29q16 0 16 -18v-745q0 -104 55.5 -164t157.5 -60h147q102 0 166 55.5t64 157.5v756q0 18 16 18h29q16 0 16 -18v-1008q0 -18 -16 -18h-29q-16 0 -16 18v88h-8q-57 -106 -217 -106z" />
<glyph unicode="v" horiz-adv-x="823" d="M55 1044h33q14 0 21 -18l299 -942h8l299 942q6 18 20 18h33q18 0 12 -18l-323 -1008q-6 -18 -23 -18h-45q-16 0 -22 18l-324 1008q-6 18 12 18z" />
<glyph unicode="w" horiz-adv-x="1390" d="M414 0h-41q-16 0 -23 18l-307 1008q-6 18 12 18h31q14 0 20 -18l283 -942h8l262 942q4 18 23 18h29q18 0 22 -18l258 -942h8l283 942q6 18 21 18h32q18 0 13 -18l-308 -1008q-6 -18 -22 -18h-43q-16 0 -23 18l-254 912h-8l-254 -912q-6 -18 -22 -18z" />
<glyph unicode="x" horiz-adv-x="819" d="M104 0h-41q-18 0 -6 18l308 514l-289 494q-12 18 6 18h39q14 0 26 -18l259 -446h8l252 446q12 18 26 18h39q18 0 6 -18l-284 -489l309 -519q12 -18 -6 -18h-47q-8 0 -21 18l-274 474h-8l-275 -474q-13 -18 -27 -18z" />
<glyph unicode="y" horiz-adv-x="933" d="M121 -301q-18 0 -19 16v25q0 16 19 16h59q82 0 116 30t50 43t35.5 53t26.5 52q37 82 47 121h-21q-16 0 -22 19l-349 952q-6 18 13 18h33q14 0 20 -18l334 -911h8l334 911q6 18 20 18h33q18 0 12 -18l-348 -952q-63 -182 -96 -236q-88 -137 -246 -139h-59z" />
<glyph unicode="z" horiz-adv-x="804" d="M72 16v19q0 12 4 18l563 926v8h-537q-18 0 -18 17v24q0 16 18 16h600q18 0 19 -16v-24q0 -10 -4 -17l-561 -921v-9h559q18 0 18 -16v-25q0 -16 -18 -16h-625q-18 0 -18 16z" />
<glyph unicode="{" horiz-adv-x="600" d="M451 1317h8q18 0 18 -17v-24q0 -16 -18 -16h-8q-84 0 -118 -56.5t-34 -167.5v-288q0 -160 -106 -195q106 -35 106 -195v-286q0 -111 34 -167.5t118 -56.5h8q18 0 18 -16v-25q0 -16 -18 -16h-8q-106 0 -159.5 74t-53.5 205v286q0 90 -34 129t-104 39q-18 0 -18 17v24 q0 16 18 17q70 0 104 38.5t34 129.5v288q0 131 53.5 205t159.5 74z" />
<glyph unicode="|" horiz-adv-x="409" d="M236 1298v-1280q0 -18 -17 -18h-29q-16 0 -16 18v1280q0 18 16 19h29q17 -1 17 -19z" />
<glyph unicode="}" horiz-adv-x="600" d="M322 1038v-288q0 -90 33.5 -129t103.5 -39q18 0 18 -17v-24q0 -16 -18 -17q-70 0 -103.5 -39t-33.5 -129v-286q0 -131 -53.5 -205t-159.5 -74h-9q-18 0 -18 16v25q0 16 18 16h9q84 0 117.5 56.5t33.5 167.5v286q0 160 107 195q-106 35 -107 195v288q0 111 -33.5 167.5 t-117.5 56.5h-9q-18 0 -18 16v24q0 16 18 17h9q106 0 159.5 -74t53.5 -205z" />
<glyph unicode="~" horiz-adv-x="1048" d="M336 666q-51 0 -176 -41q-16 0 -17 20v19q0 14 51.5 36.5t128 22.5t208 -29.5t182.5 -29.5t176 41q16 0 16 -21v-18q0 -14 -51 -37t-125 -23t-208 30t-185 30z" />
<glyph unicode="&#xa1;" horiz-adv-x="485" d="M260 1036h-35q-16 0 -16 19v243q0 18 16 19h35q16 0 16 -19v-243q0 -19 -16 -19zM238 901h8q10 0 15 -30.5t12.5 -264t7.5 -416.5v-172q0 -18 -17 -18h-43q-16 0 -16 18v172q0 553 18 689q5 22 15 22z" />
<glyph unicode="&#xa2;" horiz-adv-x="839" d="M547 -182h-29q-16 0 -16 18v164h-84q-125 0 -200 76t-75 203v487q0 127 75 202.5t200 75.5h84v195q0 18 16 18h29q16 0 16 -18v-195h187q18 0 18 -16v-24q0 -16 -18 -17h-332q-102 0 -157.5 -59.5t-55.5 -163.5v-483q0 -104 55 -164t158 -60h332q18 0 18 -16v-25 q0 -16 -18 -16h-187v-164q0 -18 -16 -18z" />
<glyph unicode="&#xa3;" horiz-adv-x="1064" d="M238 57h665q18 0 19 -16v-25q0 -16 -19 -16h-803q-18 0 -18 16v25q0 16 18 16h25q41 0 74.5 44t33.5 104v368h-133q-18 0 -18 17v24q0 16 18 17h133v413q0 127 75 200t200 73h133q125 0 199.5 -73t74.5 -200v-59q0 -18 -16 -18h-29q-16 0 -16 18v57q0 104 -55.5 161 t-157.5 57h-133q-102 0 -157.5 -56.5t-55.5 -161.5v-411h360q18 0 19 -17v-24q0 -16 -19 -17h-360v-364q0 -53 -12 -88q-20 -55 -45 -55v-9z" />
<glyph unicode="&#xa5;" horiz-adv-x="997" d="M512 0h-29q-16 0 -16 18v340h-381q-18 0 -18 17v24q0 16 18 17h381v86l-72 143h-309q-18 0 -18 17v24q0 16 18 16h281l-304 596q-8 18 11 19h39q14 0 22 -19l359 -716h8l358 716q8 18 23 19h39q20 0 10 -19l-301 -596h278q18 0 19 -16v-24q0 -16 -19 -17h-307l-74 -143 v-86h381q18 0 19 -17v-24q0 -16 -19 -17h-381v-340q0 -18 -16 -18z" />
<glyph unicode="&#xa6;" horiz-adv-x="395" d="M231 1298v-510q0 -18 -16 -18h-35q-16 0 -16 18v510q0 18 16 19h35q16 -1 16 -19zM231 528v-510q0 -18 -16 -18h-35q-16 0 -16 18v510q0 18 16 19h35q16 -1 16 -19z" />
<glyph unicode="&#xa7;" horiz-adv-x="909" d="M725 621q0 80 -41 117.5t-123 52.5l-227 38q-98 20 -150 72v-188q0 -154 160 -183l227 -38q100 -16 154 -64v193zM518 0h-368q-18 0 -19 16v25q0 16 19 16h368q123 0 165 56.5t42 144.5t-41 126t-123 52l-227 39q-211 41 -211 238v354q0 250 248 250h329q18 0 19 -17v-24 q0 -16 -19 -16h-329q-88 0 -137.5 -50.5t-49.5 -137.5t34 -129t126 -58l227 -39q104 -18 159.5 -69.5t55.5 -155.5v-349q0 -127 -57 -199.5t-211 -72.5z" />
<glyph unicode="&#xa8;" horiz-adv-x="667" d="M143 1194v227q0 18 17 19h28q16 0 17 -19v-227q0 -18 -17 -18h-28q-17 0 -17 18zM463 1194v227q0 18 16 19h29q16 0 16 -19v-227q0 -18 -16 -18h-29q-16 0 -16 18z" />
<glyph unicode="&#xa9;" horiz-adv-x="1490" d="M1014 823v-37q0 -18 -17 -18h-28q-16 0 -17 18v35q0 102 -44 142.5t-148 40.5h-43q-104 0 -148.5 -40t-44.5 -143v-340q0 -102 44 -142t149 -40h43q104 0 148 40t44 142v47q0 18 17 19h28q16 0 17 -19v-49q0 -125 -63.5 -181t-190.5 -56h-43q-127 0 -190.5 56t-63.5 181 v344q0 125 63.5 181.5t190.5 56.5h43q127 0 190.5 -56.5t63.5 -181.5zM428 57h635q102 0 157.5 59.5t55.5 164.5v755q0 104 -55.5 164t-157.5 60h-635q-102 0 -157.5 -59.5t-55.5 -164.5v-755q0 -104 55.5 -164t157.5 -60zM428 1317h635q125 0 199.5 -76t74.5 -203v-759 q0 -127 -74.5 -203t-199.5 -76h-635q-125 0 -199.5 76t-74.5 203v759q0 127 74.5 203t199.5 76z" />
<glyph unicode="&#xab;" horiz-adv-x="870" d="M727 229v-32q0 -12 -7 -16.5t-15 5.5l-273 283q-18 23 -18 39v29q0 16 18 38l273 283q8 10 15 6t7 -16v-33q0 -14 -10 -27l-256 -266l256 -266q10 -13 10 -27zM457 229v-32q0 -12 -7.5 -16.5t-15.5 5.5l-272 283q-18 23 -19 39v29q0 16 19 38l272 283q8 10 15.5 6 t7.5 -16v-33q0 -14 -11 -27l-256 -266l256 -266q11 -13 11 -27z" />
<glyph unicode="&#xad;" horiz-adv-x="638" d="M539 627h-439q-18 0 -18 16v25q0 16 18 16h439q18 0 18 -16v-25q0 -16 -18 -16z" />
<glyph unicode="&#xae;" horiz-adv-x="880" d="M477 1280h-96v-141h96q41 0 41 43v57q0 41 -41 41zM334 977v328q0 18 16 18h127q41 0 64.5 -24.5t23.5 -65.5v-47q0 -68 -53 -86l57 -123q8 -18 -6 -19h-20q-14 0 -19 13l-57 125h-86v-119q0 -18 -16 -19h-15q-16 1 -16 19zM358 883h162q80 0 124 47t44 129v160 q0 82 -44 129t-124 47h-162q-80 0 -124 -47.5t-44 -128.5v-160q0 -82 44 -129t124 -47zM520 838h-162q-98 0 -156.5 59t-58.5 160v164q0 100 58.5 159.5t156.5 59.5h162q98 0 157.5 -59.5t59.5 -159.5v-164q0 -100 -59.5 -159.5t-157.5 -59.5z" />
<glyph unicode="&#xaf;" horiz-adv-x="741" d="M580 1284h-418q-18 0 -19 16v19q0 16 19 16h418q18 0 18 -16v-19q0 -16 -18 -16z" />
<glyph unicode="&#xb0;" horiz-adv-x="565" d="M319 1047h-75q-100 0 -101 100v199q0 96 101 96h75q47 0 75 -25.5t28 -70.5v-199q0 -47 -28 -73.5t-75 -26.5zM295 1098q43 0 56.5 14t13.5 57v148q0 43 -13.5 57.5t-56.5 14.5h-25q-43 0 -56 -14.5t-13 -57.5v-148q0 -43 13 -57t56 -14h25z" />
<glyph unicode="&#xb1;" horiz-adv-x="1048" d="M555 774h332q18 0 18 -16v-25q0 -16 -18 -16h-332v-246q0 -18 -16 -18h-29q-16 0 -16 18v246h-332q-18 0 -19 16v25q0 16 19 16h332v246q0 18 16 18h29q16 0 16 -18v-246zM162 334h725q18 0 18 -17v-24q0 -16 -18 -17h-725q-18 0 -19 17v24q1 17 19 17z" />
<glyph unicode="&#xb4;" horiz-adv-x="534" d="M317 1440h62q8 0 11 -5t-3 -14l-188 -229q-12 -16 -29 -16h-16q-16 0 -7 18l140 227q7 19 30 19z" />
<glyph unicode="&#xb6;" horiz-adv-x="1032" d="M393 0h-28q-16 0 -17 18v644q-123 2 -184.5 58t-61.5 179v180q0 125 63.5 181.5t190.5 56.5h473q18 0 19 -17v-1282q0 -18 -17 -18h-28q-16 0 -17 18v1221q0 16 -18 16h-340q-18 0 -18 -16v-1221q-1 -18 -17 -18z" />
<glyph unicode="&#xb7;" horiz-adv-x="423" d="M250 774v-244q0 -18 -17 -18h-43q-16 0 -16 18v244q0 18 16 19h43q17 -1 17 -19z" />
<glyph unicode="&#xb8;" horiz-adv-x="520" d="M215 -111q82 0 122 -26.5t40 -89.5v-21q0 -117 -162 -117h-39q-18 0 -18 17v20q0 16 18 17h33q113 0 113 69v4q0 41 -25 57.5t-88 16.5h-19q-35 0 -45 24.5t13 47.5l118 133h72l-133 -143v-9z" />
<glyph unicode="&#xbb;" horiz-adv-x="870" d="M414 815v33q0 12 6 16t16 -6l273 -283q18 -23 18 -38v-29q0 -16 -18 -39l-273 -283q-10 -10 -16 -6t-6 17v32q0 14 10 27l256 266l-256 266q-10 13 -10 27zM143 815v33q0 12 6.5 16t16.5 -6l272 -283q18 -23 19 -38v-29q0 -16 -19 -39l-272 -283q-10 -10 -16.5 -6 t-6.5 17v32q0 14 11 27l256 266l-256 266q-11 13 -11 27z" />
<glyph unicode="&#xbf;" horiz-adv-x="972" d="M428 1053v243q0 18 16 19h43q16 0 17 -19v-243q0 -18 -17 -19h-43q-16 1 -16 19zM434 801v80q0 18 17 18h28q16 0 17 -18v-72q0 -88 -23.5 -135t-99.5 -113l-64 -57q-84 -72 -84 -162v-68q0 -104 55.5 -160.5t157.5 -56.5h97q102 0 157.5 56.5t55.5 160.5v97q0 18 16 18 h29q16 0 16 -18v-99q0 -127 -75 -199.5t-199 -72.5h-97q-125 0 -199.5 72.5t-74.5 199.5v72q0 113 98 195l82 69q61 51 75.5 87t14.5 106z" />
<glyph unicode="&#xc0;" horiz-adv-x="1077" d="M539 1448h-17q-16 0 -28 16l-189 230q-6 8 -3 13t11 5h62q23 0 31 -18l139 -228q10 -18 -6 -18zM104 0h-28q-18 0 -13 18l431 1280q6 18 20 19h49q14 0 21 -19l430 -1280q6 -18 -13 -18h-30q-14 0 -21 18l-125 357h-573l-125 -357q-9 -18 -23 -18zM535 1239l-261 -803 h529l-260 803h-8z" />
<glyph unicode="&#xc1;" horiz-adv-x="1077" d="M705 1712h61q8 0 11 -5t-3 -13l-188 -230q-12 -16 -29 -16h-16q-16 0 -6 18l139 228q11 18 31 18zM104 0h-28q-18 0 -13 18l431 1280q6 18 20 19h49q14 0 21 -19l430 -1280q6 -18 -13 -18h-30q-14 0 -21 18l-125 357h-573l-125 -357q-9 -18 -23 -18zM535 1239l-261 -803 h529l-260 803h-8z" />
<glyph unicode="&#xc2;" horiz-adv-x="1077" d="M711 1448h-29q-18 0 -23 10l-120 215l-121 -215q-4 -10 -23 -10h-28q-23 0 -9 22l131 224q12 18 39 18h21q27 0 39 -18l131 -224q15 -22 -8 -22zM104 0h-28q-18 0 -13 18l431 1280q6 18 20 19h49q14 0 21 -19l430 -1280q6 -18 -13 -18h-30q-14 0 -21 18l-125 357h-573 l-125 -357q-9 -18 -23 -18zM535 1239l-261 -803h529l-260 803h-8z" />
<glyph unicode="&#xc3;" horiz-adv-x="1077" d="M515 1462.5q-26 -24.5 -83 -24.5t-80.5 35.5t-23.5 123.5v80q0 18 16 19h14q16 0 17 -19v-78q0 -68 13 -93t48 -25t48.5 20.5t35 89t45 90t80.5 21.5t81 -36t24 -124v-86q0 -18 -17 -18h-14q-16 0 -17 18v84q0 68 -13 93.5t-52 25.5t-55 -37q-4 -10 -22.5 -72.5 t-44.5 -87zM104 0h-28q-18 0 -13 18l431 1280q6 18 20 19h49q14 0 21 -19l430 -1280q6 -18 -13 -18h-30q-14 0 -21 18l-125 357h-573l-125 -357q-9 -18 -23 -18zM535 1239l-261 -803h529l-260 803h-8z" />
<glyph unicode="&#xc4;" horiz-adv-x="1077" d="M348 1466v228q0 18 17 18h28q16 0 17 -18v-228q0 -18 -17 -18h-28q-17 0 -17 18zM668 1466v228q0 18 16 18h29q16 0 16 -18v-228q0 -18 -16 -18h-29q-16 0 -16 18zM104 0h-28q-18 0 -13 18l431 1280q6 18 20 19h49q14 0 21 -19l430 -1280q6 -18 -13 -18h-30q-14 0 -21 18 l-125 357h-573l-125 -357q-9 -18 -23 -18zM535 1239l-261 -803h529l-260 803h-8z" />
<glyph unicode="&#xc5;" horiz-adv-x="1077" d="M545 1417h-21q-76 0 -115.5 42t-39.5 120v45q0 78 40 119t115 41h21q76 0 118 -42t42 -118v-45q0 -76 -42 -119t-118 -43zM524 1464h21q109 0 108 117v41q0 115 -108 115h-21q-106 0 -106 -115v-41q0 -117 106 -117zM104 0h-28q-18 0 -13 18l431 1280q6 18 20 19h49 q14 0 21 -19l430 -1280q6 -18 -13 -18h-30q-14 0 -21 18l-125 357h-573l-125 -357q-9 -18 -23 -18zM535 1239l-261 -803h529l-260 803h-8z" />
<glyph unicode="&#xc6;" horiz-adv-x="1579" d="M49 0h-39q-18 0 -8 18l727 1280q10 18 29 19h659q18 0 19 -17v-24q0 -16 -19 -16h-559q-18 0 -18 -17v-526q0 -16 18 -17h506q18 0 18 -16v-25q0 -16 -18 -16h-506q-18 0 -18 -16v-553q0 -16 18 -17h559q18 0 19 -16v-25q0 -16 -19 -16h-622q-16 0 -17 18v357h-502 l-202 -357q-11 -18 -25 -18zM778 436v807h-8l-459 -807h467z" />
<glyph unicode="&#xc7;" horiz-adv-x="1112" d="M963 918h-29q-16 0 -16 18v100q0 104 -55.5 164t-157.5 60h-267q-102 0 -157.5 -59.5t-55.5 -164.5v-755q0 -104 55.5 -164t157.5 -60h267q102 0 157.5 59.5t55.5 164.5v100q0 18 16 18h29q16 0 16 -18v-102q0 -127 -75 -203t-199 -76h-54l-94 -102v-9q82 0 122 -26.5 t40 -89.5v-21q0 -117 -162 -117h-39q-18 0 -18 17v20q0 16 18 17h33q61 0 87 15t26 54v4q0 41 -25 57.5t-88 16.5h-19q-37 0 -46 24.5t14 47.5l82 92h-144q-125 0 -199.5 76t-74.5 203v759q0 127 74.5 203t199.5 76h267q125 0 199.5 -76t74.5 -203v-102q0 -18 -16 -18z" />
<glyph unicode="&#xc8;" horiz-adv-x="985" d="M549 1448h-17q-16 0 -28 16l-189 230q-6 8 -3 13t12 5h61q20 0 31 -18l139 -228q10 -18 -6 -18zM823 0h-622q-16 0 -17 18v1280q0 18 17 19h622q18 0 19 -17v-24q0 -16 -19 -16h-559q-18 0 -18 -17v-526q0 -16 18 -17h506q18 0 18 -16v-25q0 -16 -18 -16h-506 q-18 0 -18 -16v-553q0 -16 18 -17h559q18 0 19 -16v-25q-1 -16 -19 -16z" />
<glyph unicode="&#xc9;" horiz-adv-x="985" d="M653 1712h62q8 0 11 -5t-3 -13l-188 -230q-12 -16 -29 -16h-17q-16 0 -6 18l140 228q7 18 30 18zM823 0h-622q-16 0 -17 18v1280q0 18 17 19h622q18 0 19 -17v-24q0 -16 -19 -16h-559q-18 0 -18 -17v-526q0 -16 18 -17h506q18 0 18 -16v-25q0 -16 -18 -16h-506 q-18 0 -18 -16v-553q0 -16 18 -17h559q18 0 19 -16v-25q-1 -16 -19 -16z" />
<glyph unicode="&#xca;" horiz-adv-x="985" d="M684 1448h-29q-16 0 -22 10l-121 215l-121 -215q-6 -10 -22 -10h-29q-23 0 -8 22l131 224q12 18 39 18h20q27 0 39 -18l131 -224q15 -22 -8 -22zM823 0h-622q-16 0 -17 18v1280q0 18 17 19h622q18 0 19 -17v-24q0 -16 -19 -16h-559q-18 0 -18 -17v-526q0 -16 18 -17h506 q18 0 18 -16v-25q0 -16 -18 -16h-506q-18 0 -18 -16v-553q0 -16 18 -17h559q18 0 19 -16v-25q-1 -16 -19 -16z" />
<glyph unicode="&#xcb;" horiz-adv-x="985" d="M322 1466v228q0 18 16 18h29q16 0 16 -18v-228q0 -18 -16 -18h-29q-16 0 -16 18zM641 1466v228q0 18 16 18h29q16 0 16 -18v-228q0 -18 -16 -18h-29q-16 0 -16 18zM823 0h-622q-16 0 -17 18v1280q0 18 17 19h622q18 0 19 -17v-24q0 -16 -19 -16h-559q-18 0 -18 -17v-526 q0 -16 18 -17h506q18 0 18 -16v-25q0 -16 -18 -16h-506q-18 0 -18 -16v-553q0 -16 18 -17h559q18 0 19 -16v-25q-1 -16 -19 -16z" />
<glyph unicode="&#xcc;" horiz-adv-x="450" d="M236 1448h-17q-16 0 -29 16l-188 230q-6 8 -3 13t11 5h62q23 0 30 -18l140 -228q10 -18 -6 -18zM256 1298v-1280q0 -18 -16 -18h-29q-16 0 -16 18v1280q0 18 16 19h29q16 -1 16 -19z" />
<glyph unicode="&#xcd;" horiz-adv-x="452" d="M381 1712h61q8 0 11.5 -5t-2.5 -13l-189 -230q-12 -16 -29 -16h-16q-16 0 -6 18l139 228q11 18 31 18zM256 1298v-1280q0 -18 -16 -18h-29q-16 0 -16 18v1280q0 18 16 19h29q16 -1 16 -19z" />
<glyph unicode="&#xce;" horiz-adv-x="450" d="M397 1448h-28q-16 0 -23 10l-121 215l-121 -215q-6 -10 -22 -10h-29q-23 0 -8 22l131 224q12 18 39 18h21q27 0 38 -18l132 -224q14 -22 -9 -22zM256 1298v-1280q0 -18 -16 -18h-29q-16 0 -16 18v1280q0 18 16 19h29q16 -1 16 -19z" />
<glyph unicode="&#xcf;" horiz-adv-x="450" d="M35 1466v228q0 18 16 18h29q16 0 16 -18v-228q0 -18 -16 -18h-29q-16 0 -16 18zM354 1466v228q0 18 17 18h28q16 0 17 -18v-228q0 -18 -17 -18h-28q-17 0 -17 18zM256 1298v-1280q0 -18 -16 -18h-29q-16 0 -16 18v1280q0 18 16 19h29q16 -1 16 -19z" />
<glyph unicode="&#xd0;" horiz-adv-x="1024" d="M264 57h441q102 0 157.5 59.5t55.5 164.5v755q0 104 -55.5 164t-157.5 60h-441q-18 0 -18 -17v-530q0 -16 18 -17h340q18 0 19 -16v-25q0 -16 -19 -16h-340q-18 0 -18 -16v-549q0 -17 18 -17zM705 0h-504q-16 0 -17 18v605q0 16 -18 16h-94q-18 0 -19 16v25q0 16 19 16 h94q18 0 18 17v585q0 18 17 19h504q125 0 199.5 -76t74.5 -203v-759q0 -127 -74.5 -203t-199.5 -76z" />
<glyph unicode="&#xd1;" horiz-adv-x="1183" d="M568.5 1462.5q-25.5 -24.5 -83 -24.5t-81 35.5t-23.5 123.5v80q0 18 16 19h15q16 0 16 -19v-78q0 -68 13.5 -93t48 -25t48 20.5t35 89t45 90t81 21.5t81 -36t23.5 -124v-86q0 -18 -17 -18h-14q-16 0 -16 18v84q0 68 -13.5 93.5t-52.5 25.5t-55 -37q-4 -10 -22.5 -72.5 t-44 -87zM229 0h-28q-16 0 -17 18v1280q0 18 17 19h28q10 0 15 -8l686 -1162h8v1151q0 18 16 19h29q16 0 16 -19v-1280q0 -18 -16 -18h-20q-14 0 -25 16l-684 1158h-8v-1156q-1 -18 -17 -18z" />
<glyph unicode="&#xd2;" horiz-adv-x="1132" d="M586 1448h-17q-16 0 -28 16l-189 230q-6 8 -3 13t11 5h62q20 0 31 -18l139 -228q10 -18 -6 -18zM438 57h256q102 0 157.5 59.5t55.5 164.5v755q0 104 -55 164t-158 60h-256q-102 0 -157.5 -59.5t-55.5 -164.5v-755q0 -104 55.5 -164t157.5 -60zM694 0h-256 q-125 0 -199.5 76t-74.5 203v759q0 127 74.5 203t199.5 76h256q125 0 200 -76t75 -203v-759q0 -127 -75 -203t-200 -76z" />
<glyph unicode="&#xd3;" horiz-adv-x="1132" d="M707 1712h61q8 0 11 -5t-3 -13l-188 -230q-12 -16 -29 -16h-16q-16 0 -6 18l139 228q8 18 31 18zM438 57h256q102 0 157.5 59.5t55.5 164.5v755q0 104 -55 164t-158 60h-256q-102 0 -157.5 -59.5t-55.5 -164.5v-755q0 -104 55.5 -164t157.5 -60zM694 0h-256 q-125 0 -199.5 76t-74.5 203v759q0 127 74.5 203t199.5 76h256q125 0 200 -76t75 -203v-759q0 -127 -75 -203t-200 -76z" />
<glyph unicode="&#xd4;" horiz-adv-x="1132" d="M737 1448h-28q-16 0 -23 10l-121 215l-121 -215q-6 -10 -22 -10h-29q-23 0 -8 22l131 224q12 18 39 18h20q27 0 39 -18l131 -224q15 -22 -8 -22zM438 57h256q102 0 157.5 59.5t55.5 164.5v755q0 104 -55 164t-158 60h-256q-102 0 -157.5 -59.5t-55.5 -164.5v-755 q0 -104 55.5 -164t157.5 -60zM694 0h-256q-125 0 -199.5 76t-74.5 203v759q0 127 74.5 203t199.5 76h256q125 0 200 -76t75 -203v-759q0 -127 -75 -203t-200 -76z" />
<glyph unicode="&#xd5;" horiz-adv-x="1132" d="M541.5 1462.5q-25.5 -24.5 -83 -24.5t-81 35.5t-23.5 123.5v80q0 18 17 19h14q16 0 16 -19v-78q0 -68 13.5 -93t48.5 -25t48 20.5t34.5 89t45 90t81 21.5t81 -36t23.5 -124v-86q0 -18 -16 -18h-15q-16 0 -16 18v84q0 68 -13.5 93.5t-52 25.5t-55.5 -37 q-4 -10 -22.5 -72.5t-44 -87zM438 57h256q102 0 157.5 59.5t55.5 164.5v755q0 104 -55 164t-158 60h-256q-102 0 -157.5 -59.5t-55.5 -164.5v-755q0 -104 55.5 -164t157.5 -60zM694 0h-256q-125 0 -199.5 76t-74.5 203v759q0 127 74.5 203t199.5 76h256q125 0 200 -76 t75 -203v-759q0 -127 -75 -203t-200 -76z" />
<glyph unicode="&#xd6;" horiz-adv-x="1132" d="M375 1466v228q0 18 16 18h29q16 0 16 -18v-228q0 -18 -16 -18h-29q-16 0 -16 18zM694 1466v228q0 18 17 18h28q16 0 17 -18v-228q0 -18 -17 -18h-28q-17 0 -17 18zM438 57h256q102 0 157.5 59.5t55.5 164.5v755q0 104 -55 164t-158 60h-256q-102 0 -157.5 -59.5 t-55.5 -164.5v-755q0 -104 55.5 -164t157.5 -60zM694 0h-256q-125 0 -199.5 76t-74.5 203v759q0 127 74.5 203t199.5 76h256q125 0 200 -76t75 -203v-759q0 -127 -75 -203t-200 -76z" />
<glyph unicode="&#xd7;" horiz-adv-x="993" d="M541 657l239 -239q14 -14 0 -25l-20 -20q-10 -14 -25 0l-239 239l-240 -239q-14 -14 -25 0l-20 20q-14 10 0 25l240 239l-240 240q-14 14 0 25l20 20q10 14 25 0l240 -240l239 240q14 14 25 0l20 -20q14 -10 0 -25z" />
<glyph unicode="&#xd8;" horiz-adv-x="1132" d="M969 1038v-759q0 -127 -75 -203t-200 -76h-256q-160 0 -229 115l-64 -88q-12 -14 -26 -7l-19 13q-12 10 0 28l80 111q-16 53 -16 107v759q0 127 74.5 203t199.5 76h256q156 0 230 -113l61 84q12 16 27 8l18 -12q14 -10 0 -29l-78 -108q17 -54 17 -109zM225 1036v-755 q0 -29 2 -43l658 913q-47 109 -191 109h-256q-102 0 -157.5 -60t-55.5 -164zM907 281v755q0 31 -2 45l-657 -913q47 -111 190 -111h256q102 0 157.5 60t55.5 164z" />
<glyph unicode="&#xd9;" horiz-adv-x="1126" d="M598 1448h-16q-16 0 -29 16l-188 230q-6 8 -3 13t11 5h61q20 0 31 -18l139 -228q10 -18 -6 -18zM907 1317h29q16 0 16 -17v-1021q0 -127 -74.5 -203t-199.5 -76h-229q-125 0 -200 76t-75 203v1019q0 18 16 19h29q16 0 17 -19v-1017q0 -104 55 -164t158 -60h229 q102 0 157.5 59.5t55.5 164.5v1017q0 19 16 19z" />
<glyph unicode="&#xda;" horiz-adv-x="1126" d="M702 1712h62q8 0 11 -5t-3 -13l-188 -230q-12 -16 -29 -16h-16q-16 0 -7 18l140 228q7 18 30 18zM907 1317h29q16 0 16 -17v-1021q0 -127 -74.5 -203t-199.5 -76h-229q-125 0 -200 76t-75 203v1019q0 18 16 19h29q16 0 17 -19v-1017q0 -104 55 -164t158 -60h229 q102 0 157.5 59.5t55.5 164.5v1017q0 19 16 19z" />
<glyph unicode="&#xdb;" horiz-adv-x="1126" d="M735 1448h-28q-18 0 -23 10l-121 215l-121 -215q-4 -10 -22 -10h-29q-23 0 -8 22l131 224q12 18 39 18h20q27 0 39 -18l131 -224q15 -22 -8 -22zM907 1317h29q16 0 16 -17v-1021q0 -127 -74.5 -203t-199.5 -76h-229q-125 0 -200 76t-75 203v1019q0 18 16 19h29 q16 0 17 -19v-1017q0 -104 55 -164t158 -60h229q102 0 157.5 59.5t55.5 164.5v1017q0 19 16 19z" />
<glyph unicode="&#xdc;" horiz-adv-x="1126" d="M373 1466v228q0 18 16 18h29q16 0 16 -18v-228q0 -18 -16 -18h-29q-16 0 -16 18zM692 1466v228q0 18 17 18h28q16 0 17 -18v-228q0 -18 -17 -18h-28q-17 0 -17 18zM907 1317h29q16 0 16 -17v-1021q0 -127 -74.5 -203t-199.5 -76h-229q-125 0 -200 76t-75 203v1019 q0 18 16 19h29q16 0 17 -19v-1017q0 -104 55 -164t158 -60h229q102 0 157.5 59.5t55.5 164.5v1017q0 19 16 19z" />
<glyph unicode="&#xdd;" horiz-adv-x="995" d="M645 1712h62q8 0 11 -5t-3 -13l-189 -230q-12 -16 -28 -16h-17q-16 0 -6 18l139 228q8 18 31 18zM512 0h-29q-16 0 -16 18v484l-404 796q-10 18 11 19h37q14 0 22 -19l361 -716h8l360 716q8 18 23 19h37q20 0 10 -19l-404 -796v-484q0 -18 -16 -18z" />
<glyph unicode="&#xde;" horiz-adv-x="1024" d="M336 330h254q102 0 157.5 59.5t55.5 163.5v211q0 104 -55.5 163.5t-157.5 59.5h-254q-18 0 -19 -16v-625q1 -16 19 -16zM301 0h-29q-16 0 -16 18v1280q0 18 16 19h29q16 0 16 -19v-237q0 -16 19 -17h254q125 0 199.5 -75.5t74.5 -202.5v-215q0 -127 -74.5 -203 t-199.5 -76h-254q-18 0 -19 -16v-238q0 -18 -16 -18z" />
<glyph unicode="&#xdf;" horiz-adv-x="1103" d="M508 696h131q104 0 166.5 59.5t62.5 164.5v116q0 104 -55 164t-158 60h-206q-102 0 -157.5 -59.5t-55.5 -164.5v-1018q0 -18 -17 -18h-29q-16 0 -16 18v1020q0 127 75 203t200 76h206q125 0 200 -76t75 -203v-120q0 -86 -44 -151t-114 -99q78 -23 128 -92.5t50 -157.5 v-139q0 -127 -74.5 -203t-199.5 -76h-211q-18 0 -19 16v25q0 16 19 16h211q102 0 157.5 59.5t55.5 164.5v135q0 102 -72 162.5t-178 60.5h-131q-18 0 -19 14v27q1 16 19 16z" />
<glyph unicode="&#xe0;" d="M586 1176h-17q-16 0 -28 16l-189 229q-6 8 -3 13.5t11 5.5h62q20 0 31 -19l139 -227q10 -18 -6 -18zM569 0h-151q-125 0 -200 76t-75 203v487q0 127 75 202.5t200 75.5h422q16 0 16 -18v-1008q0 -18 -16 -18h-29q-16 0 -16 18v88h-9q-57 -106 -217 -106zM795 270v701 q0 16 -19 16h-358q-102 0 -157.5 -59.5t-55.5 -163.5v-483q0 -104 55 -164t158 -60h147q102 0 166 55.5t64 157.5z" />
<glyph unicode="&#xe1;" d="M672 1440h61q8 0 11.5 -5t-3.5 -14l-188 -229q-12 -16 -29 -16h-16q-16 0 -6 18l139 227q11 19 31 19zM569 0h-151q-125 0 -200 76t-75 203v487q0 127 75 202.5t200 75.5h422q16 0 16 -18v-1008q0 -18 -16 -18h-29q-16 0 -16 18v88h-9q-57 -106 -217 -106zM795 270v701 q0 16 -19 16h-358q-102 0 -157.5 -59.5t-55.5 -163.5v-483q0 -104 55 -164t158 -60h147q102 0 166 55.5t64 157.5z" />
<glyph unicode="&#xe2;" d="M707 1176h-29q-18 0 -23 10l-120 215l-121 -215q-4 -10 -23 -10h-29q-23 0 -8 22l131 223q12 18 39 19h21q27 0 39 -19l131 -223q15 -22 -8 -22zM569 0h-151q-125 0 -200 76t-75 203v487q0 127 75 202.5t200 75.5h422q16 0 16 -18v-1008q0 -18 -16 -18h-29q-16 0 -16 18 v88h-9q-57 -106 -217 -106zM795 270v701q0 16 -19 16h-358q-102 0 -157.5 -59.5t-55.5 -163.5v-483q0 -104 55 -164t158 -60h147q102 0 166 55.5t64 157.5z" />
<glyph unicode="&#xe3;" horiz-adv-x="1024" d="M344 1341v80q0 18 16 19h15q16 0 16 -19v-78q0 -68 13.5 -93t48 -25t48 20.5t35 89t45 90t81 21.5t81 -36t23.5 -124v-86q0 -18 -16 -18h-15q-16 0 -16 18v84q0 68 -13.5 93.5t-52.5 25.5t-55 -37q-4 -10 -22.5 -72.5t-44 -87t-83 -24.5t-81 35.5t-23.5 123.5zM569 0 h-151q-125 0 -200 76t-75 203v487q0 127 75 202.5t200 75.5h422q16 0 16 -18v-1008q0 -18 -16 -18h-29q-16 0 -16 18v88h-9q-57 -106 -217 -106zM795 270v701q0 16 -19 16h-358q-102 0 -157.5 -59.5t-55.5 -163.5v-483q0 -104 55 -164t158 -60h147q102 0 166 55.5t64 157.5z " />
<glyph unicode="&#xe4;" d="M352 1194v227q0 18 17 19h28q16 0 17 -19v-227q0 -18 -17 -18h-28q-17 0 -17 18zM672 1194v227q0 18 16 19h29q16 0 16 -19v-227q0 -18 -16 -18h-29q-16 0 -16 18zM569 0h-151q-125 0 -200 76t-75 203v487q0 127 75 202.5t200 75.5h422q16 0 16 -18v-1008q0 -18 -16 -18 h-29q-16 0 -16 18v88h-9q-57 -106 -217 -106zM795 270v701q0 16 -19 16h-358q-102 0 -157.5 -59.5t-55.5 -163.5v-483q0 -104 55 -164t158 -60h147q102 0 166 55.5t64 157.5z" />
<glyph unicode="&#xe5;" d="M795 270v701q0 16 -19 16h-358q-102 0 -157.5 -59.5t-55.5 -163.5v-483q0 -104 55 -164t158 -60h147q102 0 166 55.5t64 157.5zM569 0h-151q-125 0 -200 76t-75 203v487q0 127 75 202.5t200 75.5h422q16 0 16 -18v-1008q0 -18 -16 -18h-29q-16 0 -16 18v88h-9 q-57 -106 -217 -106zM395 1358v-82q0 -55 23.5 -75.5t79.5 -20.5h28q57 0 81 20.5t24 75.5v82q0 53 -23.5 73.5t-81.5 20.5h-28q-55 0 -79 -20.5t-24 -73.5zM346 1274v86q0 76 37 107.5t115 31.5h28q156 0 156 -139v-86q0 -141 -156 -141h-28q-78 0 -115 32.5t-37 108.5z " />
<glyph unicode="&#xe6;" horiz-adv-x="1650" d="M856 414v-133q0 -104 55.5 -164t157.5 -60h420q18 0 18 -16v-25q0 -16 -18 -16h-420q-186 0 -246 141q-63 -141 -254 -141h-151q-125 0 -200 76t-75 203v57q0 127 75 202.5t200 75.5h358q18 0 19 17v133q0 104 -55.5 163.5t-157.5 59.5h-312q-18 0 -18 17v24q0 16 18 16 h312q184 0 245 -141q66 141 254 141h152q125 0 199.5 -75.5t74.5 -202.5v-315q0 -20 -18 -21h-615q-18 0 -18 -16zM1446 504v260q0 104 -55.5 163.5t-157.5 59.5h-148q-102 0 -165.5 -55t-63.5 -158v-270q0 -16 18 -17h553q19 1 19 17zM795 270v271q0 16 -19 16h-358 q-102 0 -157.5 -59.5t-55.5 -163.5v-53q0 -104 55 -164t158 -60h147q102 0 166 55.5t64 157.5z" />
<glyph unicode="&#xe7;" horiz-adv-x="798" d="M709 987h-291q-102 0 -157.5 -59.5t-55.5 -163.5v-483q0 -104 55 -164t158 -60h291q18 0 18 -16v-25q0 -16 -18 -16h-148l-94 -102v-9q82 0 122 -26.5t40 -89.5v-21q0 -117 -162 -117h-39q-18 0 -18 17v20q0 16 18 17h33q113 0 112 69v4q0 41 -24.5 57.5t-87.5 16.5h-19 q-37 0 -46 24.5t14 47.5l82 92h-74q-125 0 -200 76t-75 203v487q0 127 75 202.5t200 75.5h291q18 0 18 -16v-24q0 -17 -18 -17z" />
<glyph unicode="&#xe8;" horiz-adv-x="1005" d="M539 1176h-17q-16 0 -28 16l-189 229q-6 8 -3 13.5t11 5.5h62q23 0 31 -19l139 -227q10 -18 -6 -18zM838 0h-420q-125 0 -200 76t-75 203v487q0 127 75 202.5t200 75.5h180q125 0 199.5 -75.5t74.5 -202.5v-260q0 -20 -18 -21h-631q-18 0 -18 -16v-188q0 -104 55 -164 t158 -60h420q18 0 18 -16v-25q0 -16 -18 -16zM223 543h570q18 0 18 16v205q0 104 -55.5 163.5t-157.5 59.5h-180q-102 0 -157.5 -59.5t-55.5 -163.5v-205q0 -16 18 -16z" />
<glyph unicode="&#xe9;" horiz-adv-x="1005" d="M623 1440h61q8 0 11 -5t-3 -14l-188 -229q-12 -16 -29 -16h-16q-16 0 -6 18l139 227q11 19 31 19zM838 0h-420q-125 0 -200 76t-75 203v487q0 127 75 202.5t200 75.5h180q125 0 199.5 -75.5t74.5 -202.5v-260q0 -20 -18 -21h-631q-18 0 -18 -16v-188q0 -104 55 -164 t158 -60h420q18 0 18 -16v-25q0 -16 -18 -16zM223 543h570q18 0 18 16v205q0 104 -55.5 163.5t-157.5 59.5h-180q-102 0 -157.5 -59.5t-55.5 -163.5v-205q0 -16 18 -16z" />
<glyph unicode="&#xea;" horiz-adv-x="1005" d="M680 1176h-29q-16 0 -22 10l-121 215l-121 -215q-6 -10 -22 -10h-29q-23 0 -8 22l131 223q12 18 39 19h20q27 0 39 -19l131 -223q15 -22 -8 -22zM838 0h-420q-125 0 -200 76t-75 203v487q0 127 75 202.5t200 75.5h180q125 0 199.5 -75.5t74.5 -202.5v-260q0 -20 -18 -21 h-631q-18 0 -18 -16v-188q0 -104 55 -164t158 -60h420q18 0 18 -16v-25q0 -16 -18 -16zM223 543h570q18 0 18 16v205q0 104 -55.5 163.5t-157.5 59.5h-180q-102 0 -157.5 -59.5t-55.5 -163.5v-205q0 -16 18 -16z" />
<glyph unicode="&#xeb;" horiz-adv-x="1005" d="M317 1194v227q0 18 17 19h28q16 0 17 -19v-227q0 -18 -17 -18h-28q-17 0 -17 18zM637 1194v227q0 18 16 19h29q16 0 16 -19v-227q0 -18 -16 -18h-29q-16 0 -16 18zM838 0h-420q-125 0 -200 76t-75 203v487q0 127 75 202.5t200 75.5h180q125 0 199.5 -75.5t74.5 -202.5 v-260q0 -20 -18 -21h-631q-18 0 -18 -16v-188q0 -104 55 -164t158 -60h420q18 0 18 -16v-25q0 -16 -18 -16zM223 543h570q18 0 18 16v205q0 104 -55.5 163.5t-157.5 59.5h-180q-102 0 -157.5 -59.5t-55.5 -163.5v-205q0 -16 18 -16z" />
<glyph unicode="&#xec;" horiz-adv-x="409" d="M213 1176h-16q-16 0 -29 16l-188 229q-6 8 -3 13.5t11 5.5h61q20 0 31 -19l139 -227q10 -18 -6 -18zM174 18v1008q0 18 16 18h29q16 0 17 -18v-1008q0 -18 -17 -18h-29q-16 0 -16 18z" />
<glyph unicode="&#xed;" horiz-adv-x="405" d="M356 1440h62q8 0 11 -5t-3 -14l-188 -229q-12 -16 -29 -16h-16q-16 0 -7 18l140 227q10 19 30 19zM174 18v1008q0 18 16 18h29q16 0 17 -18v-1008q0 -18 -17 -18h-29q-16 0 -16 18z" />
<glyph unicode="&#xee;" horiz-adv-x="409" d="M377 1176h-29q-16 0 -22 10l-121 215l-121 -215q-6 -10 -23 -10h-28q-23 0 -8 22l131 223q12 18 39 19h20q27 0 39 -19l131 -223q15 -22 -8 -22zM174 18v1008q0 18 16 18h29q16 0 17 -18v-1008q0 -18 -17 -18h-29q-16 0 -16 18z" />
<glyph unicode="&#xef;" horiz-adv-x="409" d="M14 1194v227q0 18 17 19h28q16 0 17 -19v-227q0 -18 -17 -18h-28q-17 0 -17 18zM334 1194v227q0 18 16 19h29q16 0 16 -19v-227q0 -18 -16 -18h-29q-16 0 -16 18zM174 18v1008q0 18 16 18h29q16 0 17 -18v-1008q0 -18 -17 -18h-29q-16 0 -16 18z" />
<glyph unicode="&#xf0;" horiz-adv-x="989" d="M856 731v-452q0 -127 -74.5 -203t-199.5 -76h-164q-125 0 -200 76t-75 203v282q0 127 75 203t200 76h151q160 0 217 -107h9q0 90 -52 156l-227 256l-213 -180q-14 -8 -24 2l-11 14q-10 12 4 27l209 176l-176 198q-14 18 0 31l12 10q14 10 27 -4l180 -198l219 186 q14 8 25 -2l10 -14q10 -14 -2 -25l-217 -184l232 -258q65 -76 65 -193zM795 281v288q0 102 -63.5 157.5t-166.5 55.5h-147q-102 0 -157.5 -59t-55.5 -164v-278q0 -104 55 -164t158 -60h164q102 0 157.5 60t55.5 164z" />
<glyph unicode="&#xf1;" horiz-adv-x="1030" d="M309 1341v80q0 18 17 19h14q16 0 16 -19v-78q0 -68 13.5 -93t48.5 -25t48 20.5t34.5 89t45 90t81 21.5t81 -36t23.5 -124v-86q0 -18 -16 -18h-15q-16 0 -16 18v84q0 68 -13.5 93.5t-52 25.5t-55.5 -37q-4 -10 -22.5 -72.5t-44 -87t-83 -24.5t-81 35.5t-23.5 123.5zM209 0 h-29q-16 0 -16 18v1008q0 18 16 18h29q16 0 16 -18v-88h8q57 106 218 106h151q125 0 200 -75.5t75 -202.5v-748q0 -18 -17 -18h-29q-16 0 -16 18v746q0 104 -55 163.5t-158 59.5h-147q-102 0 -166 -55t-64 -158v-756q0 -18 -16 -18z" />
<glyph unicode="&#xf2;" horiz-adv-x="1009" d="M518 1176h-16q-16 0 -29 16l-188 229q-6 8 -3 13.5t11 5.5h61q23 0 31 -19l139 -227q10 -18 -6 -18zM592 0h-174q-125 0 -200 76t-75 203v487q0 127 75 202.5t200 75.5h174q125 0 199.5 -75.5t74.5 -202.5v-487q0 -127 -74.5 -203t-199.5 -76zM418 57h174 q102 0 157.5 59.5t55.5 164.5v483q0 104 -55.5 163.5t-157.5 59.5h-174q-102 0 -157.5 -59.5t-55.5 -163.5v-483q0 -104 55.5 -164t157.5 -60z" />
<glyph unicode="&#xf3;" horiz-adv-x="1009" d="M657 1440h62q8 0 11 -5t-3 -14l-188 -229q-12 -16 -29 -16h-16q-16 0 -7 18l140 227q7 19 30 19zM592 0h-174q-125 0 -200 76t-75 203v487q0 127 75 202.5t200 75.5h174q125 0 199.5 -75.5t74.5 -202.5v-487q0 -127 -74.5 -203t-199.5 -76zM418 57h174q102 0 157.5 59.5 t55.5 164.5v483q0 104 -55.5 163.5t-157.5 59.5h-174q-102 0 -157.5 -59.5t-55.5 -163.5v-483q0 -104 55.5 -164t157.5 -60z" />
<glyph unicode="&#xf4;" horiz-adv-x="1009" d="M676 1176h-29q-16 0 -22 10l-121 215l-121 -215q-6 -10 -23 -10h-28q-23 0 -8 22l131 223q12 18 39 19h20q27 0 39 -19l131 -223q15 -22 -8 -22zM592 0h-174q-125 0 -200 76t-75 203v487q0 127 75 202.5t200 75.5h174q125 0 199.5 -75.5t74.5 -202.5v-487 q0 -127 -74.5 -203t-199.5 -76zM418 57h174q102 0 157.5 59.5t55.5 164.5v483q0 104 -55.5 163.5t-157.5 59.5h-174q-102 0 -157.5 -59.5t-55.5 -163.5v-483q0 -104 55.5 -164t157.5 -60z" />
<glyph unicode="&#xf5;" horiz-adv-x="1009" d="M293 1341v80q0 18 16 19h15q16 0 16 -19v-78q0 -68 13.5 -93t48 -25t48 20.5t35 89t45 90t81 21.5t81 -36t23.5 -124v-86q0 -18 -17 -18h-14q-16 0 -16 18v84q0 68 -13.5 93.5t-52.5 25.5t-55 -37q-4 -10 -22.5 -72.5t-44 -87t-83 -24.5t-81 35.5t-23.5 123.5zM592 0 h-174q-125 0 -200 76t-75 203v487q0 127 75 202.5t200 75.5h174q125 0 199.5 -75.5t74.5 -202.5v-487q0 -127 -74.5 -203t-199.5 -76zM418 57h174q102 0 157.5 59.5t55.5 164.5v483q0 104 -55.5 163.5t-157.5 59.5h-174q-102 0 -157.5 -59.5t-55.5 -163.5v-483 q0 -104 55.5 -164t157.5 -60z" />
<glyph unicode="&#xf6;" horiz-adv-x="1009" d="M313 1194v227q0 18 17 19h28q16 0 17 -19v-227q0 -18 -17 -18h-28q-17 0 -17 18zM633 1194v227q0 18 16 19h29q16 0 16 -19v-227q0 -18 -16 -18h-29q-16 0 -16 18zM592 0h-174q-125 0 -200 76t-75 203v487q0 127 75 202.5t200 75.5h174q125 0 199.5 -75.5t74.5 -202.5 v-487q0 -127 -74.5 -203t-199.5 -76zM418 57h174q102 0 157.5 59.5t55.5 164.5v483q0 104 -55.5 163.5t-157.5 59.5h-174q-102 0 -157.5 -59.5t-55.5 -163.5v-483q0 -104 55.5 -164t157.5 -60z" />
<glyph unicode="&#xf7;" horiz-adv-x="1069" d="M504 295v131q0 18 16 18h29q16 0 16 -18v-131q0 -18 -16 -19h-29q-16 1 -16 19zM897 629h-725q-18 0 -18 16v25q0 16 18 16h725q18 0 18 -16v-25q0 -16 -18 -16zM504 889v131q0 18 16 18h29q16 0 16 -18v-131q0 -18 -16 -19h-29q-16 1 -16 19z" />
<glyph unicode="&#xf8;" horiz-adv-x="1067" d="M895 766v-487q0 -127 -75 -203t-199 -76h-175q-180 0 -247 145l-86 -88q-14 -14 -25 0l-20 19q-12 12 0 24l110 111q-6 31 -6 68v487q0 127 75 202.5t199 75.5h175q180 0 247 -143l86 86q12 12 25 2l20 -20q12 -10 -2 -25l-108 -108q6 -33 6 -70zM233 764v-498l588 588 q-43 133 -200 133h-175q-102 0 -157.5 -59.5t-55.5 -163.5zM834 281v499l-588 -590q43 -133 200 -133h175q102 0 157.5 60t55.5 164z" />
<glyph unicode="&#xf9;" horiz-adv-x="1030" d="M528 1176h-16q-16 0 -29 16l-188 229q-6 8 -3 13.5t11 5.5h62q20 0 30 -19l140 -227q9 -18 -7 -18zM580 0h-152q-125 0 -199.5 76t-74.5 203v747q0 18 16 18h29q16 0 16 -18v-745q0 -104 55.5 -164t157.5 -60h147q102 0 166 55.5t64 157.5v756q0 18 16 18h29q16 0 16 -18 v-1008q0 -18 -16 -18h-29q-16 0 -16 18v88h-8q-57 -106 -217 -106z" />
<glyph unicode="&#xfa;" horiz-adv-x="1030" d="M662 1440h61q8 0 11 -5t-3 -14l-188 -229q-12 -16 -29 -16h-16q-16 0 -6 18l139 227q8 19 31 19zM580 0h-152q-125 0 -199.5 76t-74.5 203v747q0 18 16 18h29q16 0 16 -18v-745q0 -104 55.5 -164t157.5 -60h147q102 0 166 55.5t64 157.5v756q0 18 16 18h29q16 0 16 -18 v-1008q0 -18 -16 -18h-29q-16 0 -16 18v88h-8q-57 -106 -217 -106z" />
<glyph unicode="&#xfb;" horiz-adv-x="1030" d="M682 1176h-29q-18 0 -22 10l-121 215l-121 -215q-4 -10 -22 -10h-29q-23 0 -8 22l131 223q12 18 39 19h20q27 0 39 -19l131 -223q15 -22 -8 -22zM580 0h-152q-125 0 -199.5 76t-74.5 203v747q0 18 16 18h29q16 0 16 -18v-745q0 -104 55.5 -164t157.5 -60h147 q102 0 166 55.5t64 157.5v756q0 18 16 18h29q16 0 16 -18v-1008q0 -18 -16 -18h-29q-16 0 -16 18v88h-8q-57 -106 -217 -106z" />
<glyph unicode="&#xfc;" horiz-adv-x="1030" d="M319 1194v227q0 18 17 19h29q16 0 16 -19v-227q0 -18 -16 -18h-29q-17 0 -17 18zM639 1194v227q0 18 16 19h29q16 0 16 -19v-227q0 -18 -16 -18h-29q-16 0 -16 18zM580 0h-152q-125 0 -199.5 76t-74.5 203v747q0 18 16 18h29q16 0 16 -18v-745q0 -104 55.5 -164 t157.5 -60h147q102 0 166 55.5t64 157.5v756q0 18 16 18h29q16 0 16 -18v-1008q0 -18 -16 -18h-29q-16 0 -16 18v88h-8q-57 -106 -217 -106z" />
<glyph unicode="&#xfd;" horiz-adv-x="933" d="M625 1440h61q8 0 11 -5t-3 -14l-188 -229q-12 -16 -29 -16h-16q-16 0 -6 18l139 227q8 19 31 19zM121 -301q-18 0 -19 16v25q0 16 19 16h59q82 0 116 30t50 43t35.5 53t26.5 52q37 82 47 121h-21q-16 0 -22 19l-349 952q-6 18 13 18h33q14 0 20 -18l334 -911h8l334 911 q6 18 20 18h33q18 0 12 -18l-348 -952q-63 -182 -96 -236q-88 -137 -246 -139h-59z" />
<glyph unicode="&#xfe;" horiz-adv-x="1030" d="M465 57h147q102 0 157.5 59.5t55.5 164.5v483q0 104 -55 163.5t-158 59.5h-147q-102 0 -165.5 -55t-63.5 -158v-504q0 -102 63.5 -157.5t165.5 -55.5zM236 106v-360q0 -18 -17 -18h-29q-16 0 -16 18v1675q0 18 16 19h29q16 0 17 -19v-483h8q57 106 217 106h151 q125 0 200 -75.5t75 -202.5v-487q0 -127 -75 -203t-200 -76h-151q-160 0 -217 106h-8z" />
<glyph unicode="&#xff;" horiz-adv-x="933" d="M276 1194v227q0 18 17 19h29q16 0 16 -19v-227q0 -18 -16 -18h-29q-17 0 -17 18zM596 1194v227q0 18 16 19h29q16 0 16 -19v-227q0 -18 -16 -18h-29q-16 0 -16 18zM121 -301q-18 0 -19 16v25q0 16 19 16h59q82 0 116 30t50 43t35.5 53t26.5 52q37 82 47 121h-21 q-16 0 -22 19l-349 952q-6 18 13 18h33q14 0 20 -18l334 -911h8l334 911q6 18 20 18h33q18 0 12 -18l-348 -952q-63 -182 -96 -236q-88 -137 -246 -139h-59z" />
<glyph unicode="&#x152;" horiz-adv-x="1583" d="M164 279v759q0 127 74.5 203t199.5 76h963q18 0 18 -17v-24q0 -16 -18 -16h-559q-18 0 -19 -17v-526q0 -16 19 -17h506q18 0 18 -16v-25q0 -16 -18 -16h-506q-18 0 -19 -16v-553q0 -16 19 -17h559q18 0 18 -16v-25q0 -16 -18 -16h-963q-125 0 -199.5 76t-74.5 203z M438 57h305q18 0 19 17v1169q0 16 -19 17h-305q-102 0 -157.5 -59.5t-55.5 -164.5v-755q0 -104 55.5 -164t157.5 -60z" />
<glyph unicode="&#x153;" horiz-adv-x="1677" d="M592 0h-174q-125 0 -200 76t-75 203v487q0 127 75 202.5t200 75.5h174q174 0 244 -137q70 137 243 137h181q125 0 199.5 -75.5t74.5 -202.5v-260q0 -20 -18 -21h-631q-18 0 -19 -16v-188q0 -104 55.5 -164t157.5 -60h420q18 0 19 -16v-25q0 -16 -19 -16h-420 q-174 0 -243 137q-70 -137 -244 -137zM885 543h569q18 0 19 16v205q0 104 -55.5 163.5t-157.5 59.5h-181q-102 0 -157.5 -59.5t-55.5 -163.5v-205q1 -16 19 -16zM418 57h174q102 0 157.5 59.5t55.5 164.5v483q0 104 -55.5 163.5t-157.5 59.5h-174q-102 0 -157.5 -59.5 t-55.5 -163.5v-483q0 -104 55.5 -164t157.5 -60z" />
<glyph unicode="&#x178;" horiz-adv-x="995" d="M307 1466v228q0 18 17 18h28q16 0 17 -18v-228q0 -18 -17 -18h-28q-17 0 -17 18zM627 1466v228q0 18 16 18h29q16 0 16 -18v-228q0 -18 -16 -18h-29q-16 0 -16 18zM512 0h-29q-16 0 -16 18v484l-404 796q-10 18 11 19h37q14 0 22 -19l361 -716h8l360 716q8 18 23 19h37 q20 0 10 -19l-404 -796v-484q0 -18 -16 -18z" />
<glyph unicode="&#x2c6;" horiz-adv-x="657" d="M500 1176h-29q-16 0 -22 10l-121 215l-121 -215q-6 -10 -23 -10h-28q-23 0 -9 22l132 223q12 18 38 19h21q27 0 39 -19l131 -223q15 -22 -8 -22z" />
<glyph unicode="&#x2dc;" horiz-adv-x="765" d="M143 1341v80q0 18 17 19h14q16 0 16 -19v-78q0 -68 13.5 -93t48.5 -25t48 20.5t34.5 89t45 90t81 21.5t81 -36t23.5 -124v-86q0 -18 -16 -18h-14q-16 0 -17 18v84q0 68 -13 93.5t-52 25.5t-56 -37q-4 -10 -22.5 -72.5t-44 -87t-83 -24.5t-81 35.5t-23.5 123.5z" />
<glyph unicode="&#x2000;" horiz-adv-x="892" />
<glyph unicode="&#x2001;" horiz-adv-x="1784" />
<glyph unicode="&#x2002;" horiz-adv-x="892" />
<glyph unicode="&#x2003;" horiz-adv-x="1784" />
<glyph unicode="&#x2004;" horiz-adv-x="594" />
<glyph unicode="&#x2005;" horiz-adv-x="446" />
<glyph unicode="&#x2006;" horiz-adv-x="297" />
<glyph unicode="&#x2007;" horiz-adv-x="297" />
<glyph unicode="&#x2008;" horiz-adv-x="223" />
<glyph unicode="&#x2009;" horiz-adv-x="356" />
<glyph unicode="&#x200a;" horiz-adv-x="99" />
<glyph unicode="&#x2010;" horiz-adv-x="638" d="M539 627h-439q-18 0 -18 16v25q0 16 18 16h439q18 0 18 -16v-25q0 -16 -18 -16z" />
<glyph unicode="&#x2011;" horiz-adv-x="638" d="M539 627h-439q-18 0 -18 16v25q0 16 18 16h439q18 0 18 -16v-25q0 -16 -18 -16z" />
<glyph unicode="&#x2012;" horiz-adv-x="638" d="M539 627h-439q-18 0 -18 16v25q0 16 18 16h439q18 0 18 -16v-25q0 -16 -18 -16z" />
<glyph unicode="&#x2013;" horiz-adv-x="843" d="M743 627h-643q-18 0 -18 16v25q0 16 18 16h643q18 0 19 -16v-25q-1 -16 -19 -16z" />
<glyph unicode="&#x2014;" horiz-adv-x="1048" d="M82 643v25q0 16 18 16h848q18 0 19 -16v-25q0 -16 -19 -16h-848q-18 0 -18 16z" />
<glyph unicode="&#x2018;" horiz-adv-x="362" d="M143 848v162q0 31 54 295q4 12 13 12t9 -12v-457q0 -18 -16 -19h-43q-17 1 -17 19z" />
<glyph unicode="&#x2019;" horiz-adv-x="362" d="M219 1298v-161q0 -31 -53 -295q-2 -12 -12.5 -12.5t-10.5 12.5v456q0 18 17 19h43q16 -1 16 -19z" />
<glyph unicode="&#x201a;" horiz-adv-x="382" d="M229 258v-162q0 -31 -53 -295q-4 -12 -13 -12t-9 12v457q0 18 16 18h43q16 0 16 -18z" />
<glyph unicode="&#x201c;" horiz-adv-x="663" d="M444 848v162q0 31 54 295q2 12 12 12t10 -12v-457q0 -18 -16 -19h-43q-17 1 -17 19zM143 848v162q0 31 54 295q4 12 13 12t9 -12v-457q0 -18 -16 -19h-43q-17 1 -17 19z" />
<glyph unicode="&#x201d;" horiz-adv-x="663" d="M219 1298v-161q0 -31 -53 -295q-2 -12 -12.5 -12.5t-10.5 12.5v456q0 18 17 19h43q16 -1 16 -19zM520 1298v-161q0 -31 -53 -295q-4 -12 -13.5 -12.5t-9.5 12.5v456q0 18 17 19h43q16 -1 16 -19z" />
<glyph unicode="&#x201e;" horiz-adv-x="684" d="M229 258v-162q0 -31 -53 -295q-4 -12 -13 -12t-9 12v457q0 18 16 18h43q16 0 16 -18zM530 258v-162q0 -31 -53 -295q-2 -12 -12 -12t-10 12v457q0 18 16 18h43q16 0 16 -18z" />
<glyph unicode="&#x2022;" horiz-adv-x="546" d="M342 795v-285q0 -18 -16 -18h-105q-16 0 -16 18v285q0 18 16 18h105q16 0 16 -18z" />
<glyph unicode="&#x2026;" horiz-adv-x="1202" d="M229 262v-244q0 -18 -16 -18h-43q-16 0 -16 18v244q0 18 16 19h43q16 -1 16 -19zM639 262v-244q0 -18 -16 -18h-43q-16 0 -17 18v244q0 18 17 19h43q16 -1 16 -19zM1049 262v-244q0 -18 -17 -18h-43q-16 0 -16 18v244q0 18 16 19h43q17 -1 17 -19z" />
<glyph unicode="&#x202f;" horiz-adv-x="356" />
<glyph unicode="&#x2039;" horiz-adv-x="600" d="M457 229v-32q0 -12 -7.5 -16.5t-15.5 5.5l-272 283q-18 23 -19 39v29q0 16 19 38l272 283q8 10 15.5 6t7.5 -16v-33q0 -14 -11 -27l-256 -266l256 -266q11 -13 11 -27z" />
<glyph unicode="&#x203a;" horiz-adv-x="600" d="M143 815v33q0 12 6.5 16t16.5 -6l272 -283q18 -23 19 -38v-29q0 -16 -19 -39l-272 -283q-10 -10 -16.5 -6t-6.5 17v32q0 14 11 27l256 266l-256 266q-11 13 -11 27z" />
<glyph unicode="&#x205f;" horiz-adv-x="446" />
<glyph unicode="&#x20ac;" horiz-adv-x="1058" d="M641 0h-133q-125 0 -200 72.5t-75 199.5v234h-133q-18 0 -18 16v25q0 16 18 16h133v189h-133q-18 0 -18 16v25q0 16 18 16h133v235q0 127 75 200t200 73h133q125 0 199.5 -73t74.5 -200v-59q0 -18 -16 -18h-29q-16 0 -16 18v57q0 104 -55.5 161t-157.5 57h-133 q-102 0 -157.5 -56.5t-55.5 -161.5v-233h360q18 0 19 -16v-25q0 -16 -19 -16h-360v-189h360q18 0 19 -16v-25q0 -16 -19 -16h-360v-232q0 -104 55.5 -160.5t157.5 -56.5h133q102 0 157.5 56.5t55.5 160.5v58q0 18 16 18h29q16 0 16 -18v-60q0 -127 -74.5 -199.5 t-199.5 -72.5z" />
<glyph unicode="&#x2122;" horiz-adv-x="1212" d="M1028 1317h23q18 0 18 -17v-466q0 -18 -16 -19h-19q-16 0 -16 19v380h-8l-138 -262q-6 -16 -18 -16h-18q-14 0 -23 16l-137 262h-8v-380q0 -18 -17 -19h-18q-16 0 -17 19v466q0 16 19 17h20q12 0 21 -12l164 -304h8l162 304q6 12 18 12zM305 834v434h-143q-18 0 -19 16 v16q0 16 19 17h336q18 0 18 -17v-16q0 -16 -18 -16h-142v-434q0 -18 -16 -19h-18q-17 1 -17 19z" />
<glyph unicode="&#x25fc;" horiz-adv-x="1044" d="M0 1044h1044v-1044h-1044v1044z" />
</font>
</defs>
</svg>
